<svg xmlns="http://www.w3.org/2000/svg" viewBox="0 0 146.15 144.68"><title>clip_border03</title><g id="レイヤー_2" data-name="レイヤー 2"><g id="レイヤー_1-2" data-name="レイヤー 1"><path d="M82.72,5.24l4.88,9.82L89.05,18l2.78-1.66,9.41-5.63,1.9,10.8.56,3.2,3.14-.81,10.63-2.75L116.25,32l-.36,3.23,3.25.11,11,.34-4.22,10.12-1.25,3,3.08,1,10.41,3.42-6.92,8.5-2,2.52,2.67,1.85,9,6.23-9,6.23-2.67,1.84,2,2.52,6.92,8.51-10.41,3.42-3.09,1,1.26,3L130.1,109l-11,.34-3.25.1.36,3.23,1.21,10.91-10.62-2.75L103.7,120l-.56,3.2-1.9,10.8-9.41-5.63L89,126.71l-1.44,2.91-4.88,9.82-7.44-8.06L73.07,129l-2.2,2.39-7.44,8.06-4.89-9.82-1.44-2.91-2.78,1.67L44.91,134,43,123.21l-.56-3.2-3.15.81-10.62,2.75,1.22-10.91.36-3.23-3.25-.1L16,109l4.23-10.12,1.25-3-3.08-1L8,91.44l6.92-8.51,2-2.52-2.67-1.84-9-6.23,9-6.23L17,64.26l-2-2.52L8,53.24l10.42-3.43,3.08-1-1.25-3L16,35.69l11-.35,3.25-.1L29.9,32l-1.22-10.9,10.63,2.74,3.14.82.56-3.2,1.9-10.8,9.41,5.63L57.1,18l1.45-2.9,4.88-9.82,7.44,8.06,2.2,2.39,2.21-2.39,7.44-8.06M62.68,0,55.86,13.72,42.71,5.86,40.06,21,25.22,17.11l1.69,15.24-15.31.47L17.5,47,2.94,51.75l9.67,11.89L0,72.34,12.61,81,2.94,92.93,17.5,97.71l-5.9,14.14,15.31.48-1.69,15.23,14.84-3.83,2.65,15.09L55.86,131l6.82,13.73,10.39-11.27,10.4,11.27L90.29,131l13.15,7.87,2.65-15.09,14.84,3.83-1.7-15.23,15.32-.48-5.91-14.14,14.56-4.78L133.53,81l12.62-8.7-12.62-8.7,9.67-11.89L128.64,47l5.91-14.15-15.32-.47,1.7-15.24L106.09,21,103.44,5.86,90.29,13.72,83.47,0,73.07,11.27,62.68,0Z"/></g></g></svg>