<svg xmlns="http://www.w3.org/2000/svg" viewBox="0 0 417 412.81"><title>clip03</title><g id="レイヤー_2" data-name="レイヤー 2"><g id="レイヤー_1-2" data-name="レイヤー 1"><polygon points="417 206.41 383.23 231.55 408.6 265.15 369.1 279.73 383.92 319.15 341.9 321.98 345.04 363.98 303.92 354.92 295.14 396.1 258.25 375.8 238.16 412.81 208.5 382.9 178.84 412.81 158.75 375.8 121.86 396.1 113.08 354.92 71.95 363.98 75.1 321.98 33.09 319.15 47.9 279.73 8.4 265.15 33.77 231.55 0 206.41 33.77 181.26 8.4 147.65 47.9 133.07 33.09 93.66 75.1 90.83 71.96 48.83 113.08 57.89 121.86 16.71 158.75 37.01 178.84 0 208.5 29.91 238.16 0 258.25 37.01 295.14 16.71 303.92 57.89 345.05 48.83 341.9 90.83 383.92 93.66 369.1 133.07 408.6 147.66 383.23 181.26 417 206.41"/></g></g></svg>