<svg xmlns="http://www.w3.org/2000/svg" viewBox="0 0 146.15 146.15"><title>clip_border01</title><g id="レイヤー_2" data-name="レイヤー 2"><g id="レイヤー_1-2" data-name="レイヤー 1"><path d="M73.07,4,86.9,16.31l1.12,1L89.5,17l18.11-3.74,5.8,17.57.47,1.43,1.44.48,17.57,5.8-3.75,18.11-.3,1.48,1,1.12,12.29,13.82L129.84,86.9l-1,1.12.3,1.48,3.74,18.11-17.56,5.8-1.44.47-.47,1.44-5.8,17.57L89.5,129.14l-1.48-.3-1.13,1L73.07,142.13,59.25,129.84l-1.12-1-1.48.3-18.11,3.74-5.8-17.56-.48-1.44-1.43-.47-17.57-5.8L17,89.5,17.31,88l-1-1.13L4,73.07l12.3-13.82,1-1.12L17,56.65,13.26,38.54l17.57-5.8,1.43-.48.48-1.43,5.8-17.57L56.65,17l1.48.31,1.12-1L73.07,4m0-4L57.26,14.07,36.53,9.78,29.89,29.89,9.78,36.53l4.29,20.73L0,73.07,14.07,88.89,9.78,109.62l20.11,6.64,6.64,20.1,20.73-4.28,15.81,14.07,15.82-14.07,20.73,4.28,6.64-20.1,20.1-6.64-4.28-20.73,14.07-15.82L132.08,57.26l4.28-20.73-20.1-6.64L109.62,9.78,88.89,14.07,73.07,0Z"/></g></g></svg>