<svg xmlns="http://www.w3.org/2000/svg" viewBox="0 0 146.15 146.15"><title>clip_border02</title><g id="レイヤー_2" data-name="レイヤー 2"><g id="レイヤー_1-2" data-name="レイヤー 1"><path d="M73.07,4.47l9.7,10.71,1.5,1.65,2-1,13-6.19,4.85,13.61.74,2.1,2.23-.11,14.43-.72L120.87,39l-.11,2.22,2.1.75,13.61,4.84-6.2,13-1,2L131,63.37l10.71,9.7L131,82.77l-1.65,1.5,1,2,6.2,13-13.61,4.85-2.1.74.11,2.23.71,14.43-14.43-.71-2.23-.11-.74,2.1-4.85,13.61-13-6.2-2-1L82.77,131l-9.7,10.71L63.37,131l-1.49-1.65-2,1-13,6.2L42,122.86l-.75-2.1-2.22.11-14.44.71.72-14.43.11-2.23-2.1-.74L9.68,99.33l6.19-13,1-2-1.65-1.5L4.47,73.07l10.71-9.7,1.65-1.49-1-2-6.19-13L23.29,42l2.1-.75L25.28,39l-.72-14.44L39,25.28l2.22.11.75-2.1L46.81,9.68l13,6.19,2,1,1.49-1.65,9.7-10.71m0-4.47L61.15,13.16l-16-7.61-6,16.73L21.4,21.4l.88,17.74-16.73,6,7.61,16L0,73.07,13.16,85l-7.61,16,16.73,6-.88,17.74,17.74-.88,6,16.74,16-7.62,11.92,13.17L85,133l16,7.62,6-16.74,17.74.88L123.86,107l16.74-6L133,85l13.17-11.93L133,61.15l7.62-16-16.74-6,.88-17.74L107,22.28l-6-16.73L85,13.16,73.07,0Z"/></g></g></svg>