<svg xmlns="http://www.w3.org/2000/svg" viewBox="0 0 417 417"><title>clip02</title><g id="レイヤー_2" data-name="レイヤー 2"><g id="レイヤー_1-2" data-name="レイヤー 1"><polygon points="417 208.5 381.64 242.96 401.17 288.31 355.28 306.56 355.93 355.93 306.55 355.28 288.31 401.17 242.96 381.64 208.5 417 174.04 381.64 128.69 401.17 110.44 355.28 61.07 355.93 61.72 306.55 15.83 288.31 35.36 242.96 0 208.5 35.36 174.04 15.83 128.69 61.72 110.44 61.07 61.07 110.45 61.72 128.69 15.83 174.04 35.36 208.5 0 242.96 35.36 288.31 15.83 306.56 61.72 355.93 61.07 355.28 110.45 401.17 128.69 381.64 174.04 417 208.5"/></g></g></svg>