<svg xmlns="http://www.w3.org/2000/svg" xmlns:xlink="http://www.w3.org/1999/xlink" viewBox="0 0 750 750"><defs><style>.cls-1{fill:none;}.cls-2{clip-path:url(#clip-path);}.cls-3{fill:#ed2b3b;}.cls-4{fill:url(#名称未設定グラデーション_40);}</style><clipPath id="clip-path" transform="translate(125 125)"><rect class="cls-1" width="500" height="500"/></clipPath><radialGradient id="名称未設定グラデーション_40" cx="249.99" cy="250" r="375" gradientUnits="userSpaceOnUse"><stop offset="0" stop-color="#fff"/><stop offset="0.15" stop-color="#fffbe6"/><stop offset="0.36" stop-color="#fff7cb"/><stop offset="0.56" stop-color="#fff3b8"/><stop offset="0.77" stop-color="#fff2ad"/><stop offset="1" stop-color="#fff1a9"/></radialGradient></defs><title>radiation02</title><g id="レイヤー_2" data-name="レイヤー 2"><g id="レイヤー_1-2" data-name="レイヤー 1"><g class="cls-2"><circle class="cls-3" cx="375" cy="375" r="375"/><path class="cls-4" d="M250-125h-7.95c-1.12,0-2.24,0-3.36.09h-1.16l-.54,0h0l-.54,0h0q-11.26.41-22.36,1.46l35.33,371.42-.31-.75L178.43-118.18q-11.2,2.16-22.15,5h0l-.55.14h0l-.52.13-.07,0-.48.13-.08,0-.47.12-.11,0-.44.12-.12,0-.43.11-.13,0-.42.11-.14,0-.41.11-.16,0-.38.1-.18,0-.37.1-.19,0-.35.1-.2.06-.34.09-.22.06-.32.09-.24.07-.3.08-.25.07-.29.08-.26.08-.27.07-.29.08-.23.07-.31.09-.23.06-.32.1-.2.06-.35.09-.16.05-2,.59L249,247.23l-139.53-345c-1.22.49-2.44,1-3.65,1.5h0l-.5.21,0,0-.48.2,0,0-.47.19-.06,0-.45.19-.08,0-.41.18-.14,0-.38.17-.15.06-.35.15-.18.08-.34.14-.19.09-.31.13-.23.1-.29.13-.23.1-.28.12-.25.11-.27.11-.26.12-.24.1-.3.14-.21.09-.32.14L98.2-93l-.33.14-.19.08-.35.16-.15.07-.38.17-.14.06-.38.17-.13.06-.4.18-.12,0-.41.19-.09,0-.45.21-.06,0-.47.21,0,0-.49.22,0,0Q85.09-87,76.82-82.7l172.3,330.34.11.53L45.75-64.55l-1.18.77,0,0-.42.27-.08.06-.38.25-.1.06-.35.23-.14.1-.31.2-.18.12-.28.19-.2.13-.26.17-.22.15-.22.15-.27.18-.19.13-.29.2-.15.1-.32.21-.15.1-.33.23-.12.08-.35.24-.11.07-.37.25-.08.06-.38.26-.09.06-.39.27-.06,0-.41.28,0,0-.43.3h0l-.43.31,0,0-.44.3h0l-.46.32h0l-.92.64h0q-1.85,1.29-3.67,2.6h0l-.45.33h0c-.16.1-.31.21-.46.32h0l-.9.66h0l-.45.32h0l-.43.32,0,0-.43.32,0,0-.42.3-.05,0-.4.3,0,0-.4.3-.07.05-.38.28-.07.06-.37.27-.09.08-.35.26-.11.08-.33.25-.14.1-.3.23-.16.12-.28.21-.19.15-.25.19-.21.15-.23.18-.23.18-.21.16-.25.18-.19.15-.27.21-.17.13-.29.22-.15.12-.31.24-.12.09-.35.27-.08.07-.39.29-.05.05-.41.31,0,0-2.8,2.21L249.35,248.79l0,.24.07,0h.07l0,0,.06,0H250V-125Zm-.65,373.36-.19-.66.22.43,0,.32-.06-.09ZM-10.49-19.76q-3,2.93-6,5.92h0l-.37.38-.05,0c-.11.12-.22.23-.34.34l-.07.08-.31.31-.1.11c-.1.09-.19.19-.29.29l-.11.12-.27.27-.15.15-.24.25-.16.17-.22.22-.19.2-.2.2-.2.21-.18.19-.22.23-.17.17-.23.24-.16.17-.23.24-.15.16-.24.25-.15.15-.26.27-.12.13-.27.29-.11.12-.28.29-.11.11c-.09.1-.19.2-.28.31l-.1.1-.3.32-.08.08-.3.33-.09.09-.3.32-.08.09-.3.32-.08.09-.32.33-.06.07-.31.34-.07.08-.32.34-.06.07c-.11.11-.22.23-.32.35l-.06.06-.34.36,0,0-.33.36-.05,0-.34.38,0,0-.33.37-.05,0-.35.39v0l-.37.4v0c-2.31,2.55-4.57,5.12-6.81,7.74L249,249.37l-.6-.09L-57.2,34.88Q-67.53,49.6-76.43,65.3L247.81,249.15l-.46-.1-340-151.63q-3.07,6.9-5.88,14h0c0,.14-.11.29-.17.43l0,.1c0,.14-.1.27-.16.4l0,.13c0,.12-.09.23-.13.35l-.08.19c0,.1-.08.2-.11.29l-.1.24-.1.25c0,.1-.07.19-.11.29l-.08.22c0,.11-.08.2-.12.31l-.09.21-.12.33-.07.17-.14.37-.06.15-.14.38-.06.15-.15.38-.05.15-.15.4,0,.11c-.05.15-.1.28-.16.43l0,.09-.17.45,0,.07-.17.46,0,.08c0,.15-.12.32-.17.47l0,0-.18.49,0,0-.18.49v0l-.19.5v0c-.07.16-.13.34-.19.51h0q-1.69,4.65-3.27,9.36L247.23,249-115.46,165.6l0,.1-.12.56,0,.07-.07.31,0,.13-.15.65h0l-.08.34,0,.09c0,.2-.08.39-.13.59l0,.11-.07.32,0,.08c0,.21-.09.41-.13.61l0,.1-.07.33v.05c0,.2-.09.4-.13.61l0,.15-.07.3-.06.31-.07.33-.05.2-.06.31c0,.11,0,.24-.08.36l0,.23-.06.28,0,.24-.09.39,0,.2c0,.13,0,.25-.07.38l0,.13-.09.46,0,.13c0,.16-.07.34-.1.51h0c0,.18-.07.35-.1.53v0c-.87,4.36-1.67,8.76-2.39,13.17l367.68,59.81,1.06.47.2.12-373.59-12.85c-.13,3.73-.21,7.5-.23,11.27v.64h0V250h0v1.85c0,.17,0,.34,0,.51v.73c0,.18,0,.35,0,.53v.65c0,.16,0,.35,0,.51v.13c0,.17,0,.35,0,.52v.08c0,.17,0,.32,0,.49v.08c0,.16,0,.36,0,.52v.12c0,.17,0,.34,0,.51v.1c0,.17,0,.33,0,.49v.06c0,.18,0,.35,0,.53v.11c0,.18,0,.34,0,.52v.1c0,.16,0,.33,0,.49v.07c0,.16,0,.36,0,.52v.11c0,.17,0,.34,0,.52v.09l0,1.11v.06c0,.18,0,.38,0,.56v.05c0,.39,0,.78,0,1.17h0c0,.2,0,.38,0,.59v0c.1,2.8.24,5.58.41,8.36l372.77-22.43-.74.36.66-.24-.37.23h0L-71.51,443.13l.2.34,0,0,.27.45,0,0,.25.41,0,.09.25.39,0,.08.24.4,0,.09.24.38.06.1.23.37.07.12.23.38.06.09c.08.12.16.26.23.38l.07.11c.08.12.15.24.22.36l.08.12c.07.11.15.23.21.34l.09.15.23.35.07.12.23.37.07.1.23.38.07.1.23.37.07.11.24.39.06.08.25.39,0,.09.25.38.06.1c.07.12.16.25.24.37l.06.1.25.4,0,.07.26.4,0,.08.28.43,0,0c.1.15.18.29.28.43l0,0c.2.31.39.61.6.92v0c.21.31.4.61.61.93h0c2.07,3.15,4.18,6.25,6.34,9.33h0l.32.45h0c.09.14.18.27.28.4l0,.07.24.34.09.13.18.25.16.22.12.17a3.06,3.06,0,0,0,.21.29l.08.12.25.35h0c1.19,1.67,2.41,3.34,3.63,5L248.56,250.7l.47-.08a.66.66,0,0,1,0-.09l-.33.08.26-.19H249c0-.12,0-.26,0-.41v-.27h-.07l0-.06h0s0,0,0-.06l-.2-.06-.34-.24.59.13v0l.09.08.21-.23-259.82-269ZM248.07,249.3l-.45-.15.26,0,.19.11Zm-.07,1.49-.39.06.11,0-.17.06-367.67,59.81c.16.94.31,1.87.47,2.81v0l.09.54v0l.09.54v0c0,.19.07.37.1.56h0c.24,1.35.48,2.69.73,4h0c0,.18.07.37.11.55v0l.09.53v.05c0,.16.07.35.1.52V321c.22,1.13.44,2.27.67,3.4l0,.07.09.49,0,.1c0,.14.06.3.09.44l0,.14.09.42,0,.14.09.43,0,.12c0,.17.07.32.1.48l0,.07c0,.18.07.36.11.53v0c.13.57.25,1.13.37,1.7v0l.12.53,0,.09.1.47,0,.09c0,.15.07.31.1.47l0,.09c0,.16.07.31.11.48l0,.08c0,.16.07.32.11.48v.07l.12.53v0q1.23,5.49,2.63,10.9L247.16,251-102.49,378.26q4.44,12.21,9.7,24l.1.23.12.27c1.3,2.92,2.63,5.8,4,8.67l336-160.51.55-.14Zm1.17-.21L-28.71,500.89q10.55,11.72,22,22.5l.29.27.12.11.81.76h0l2.07,1.91L249.4,250.81a2.5,2.5,0,0,1-.23-.23Zm.21.39-.07.41-225,298.1q2.47,1.88,5,3.7h0q9.11,6.64,18.6,12.73l0,0,.45.28.06,0,.4.26.13.08.34.21.2.13.26.17.27.17.2.12.36.23.1.06c.15.1.3.2.46.29h0L54,569.77,249.22,252l0,.15.05-.2.26-.41-.26.68.26-.54L223.78,624.1c5.08.35,10.2.6,15.33.74h0l1.18,0h0l1.15,0h.06l1.14,0h7.94q4.58,0,9.13-.12L250.21,251h-.66v.08l-.11.16.06-.24-.11,0Zm-.19,1.14-.1.39L85.54,587.11c4,1.93,8,3.81,12,5.61l.2.08.17.08.35.15.11.05.41.19.08,0,.44.2.06,0c4.67,2.05,9.41,4,14.18,5.88h0l.51.2h0l.48.19.08,0,.45.17.09,0,.42.16.13,0,.39.15.16.06.35.13.21.08.3.11.25.1.25.1.3.11.21.08.34.12.07,0L249,252.84,152.87,612.3l2.65.7.07,0,.43.11.13,0,.38.1.2,0,.3.08.27.07.25.06.33.08.2,0,.37.09.17,0,.41.1.12,0,.46.11.09,0,.49.12h.05l.53.13h0Q171.8,617,183,619h.05l.51.09.26.05.3,0,.37.06.18,0,.45.07.1,0,.48.08.08,0,.51.09h0l.54.1h0l1.12.19,61.09-367.42.11-.31-.09.2,0-.27Zm1.73.49L365.86,606.76l2.23-.73h0l.52-.17.05,0,.49-.16.07,0,.47-.15.09,0,.44-.14.13,0,.41-.14.14,0,.4-.14.15-.05.39-.13.16-.06.37-.13.19-.06.35-.12.19-.07.34-.12.21-.07L374,604l.21-.07.32-.11.24-.09.29-.1.25-.09.28-.1.27-.09.26-.1.28-.1.25-.08.3-.11.22-.08.32-.12.21-.07.33-.12.2-.08.33-.12.19-.07.36-.13.16-.06.38-.14.14-.05.4-.15.13,0,.4-.15.12-.05.42-.16.09,0,.45-.17.07,0,.47-.18h0l.5-.19h0q8.4-3.18,16.62-6.76L250.92,252.6Zm-.19-1.91-.23.21.1.11.06.54-.14-.21-.11-.32-.09,0v0l-.09.06.23.41.29.66,44.92,370.08,4.4-.56.11,0,.46-.06h.09l1.13-.16h0l.53-.07h.08l.53-.08h0c2.56-.36,5.1-.75,7.64-1.16L250.86,252.46l.06.14-.07-.24,0-.19,181,325.91c1.75-1,3.52-2,5.26-3l.12-.07.21-.12.29-.17h0q12.68-7.34,24.69-15.61L250.73,251.65l-.1-.59L491,537.32l.12-.11,0,0,.4-.33.05,0,.36-.32.09-.07.34-.29.1-.08.33-.28.1-.09.32-.27.11-.1.32-.27.12-.1.31-.26.11-.1.31-.27.12-.1L495,534l.12-.11.3-.26.13-.11.3-.26.11-.1.32-.28.09-.08.34-.29.08-.07.34-.3.08-.07.35-.31.06-.05.37-.32,0,0,.38-.34,0,0,.38-.34,0,0,.39-.35h0Q508,522.37,516.36,514h0l.37-.38.07-.07.32-.32.11-.11.19-.2L250.73,250.69Zm.27-.61c0,.12,0,.22,0,.3l-.06.08,0,0v.05h0s0,0,0,0l.17,0L541.4,486.05q3.89-4.8,7.63-9.72s0,0,0,0l.32-.42,0,0,.29-.38.06-.08L550,475l.07-.1c.08-.11.17-.22.25-.34l.09-.12.24-.31.11-.15.2-.27.15-.2.18-.24.16-.22.16-.21.18-.25.14-.19.21-.27.11-.16.23-.31.1-.14c.07-.1.16-.21.23-.32l.09-.12.25-.33.08-.12c.09-.11.17-.24.26-.35l.06-.09.27-.37,0-.07.29-.39,0-.06.29-.4,0-.06.29-.41,0,0,.3-.42,0,0,.31-.42,0,0c.1-.13.21-.29.3-.42l0,0,.3-.43,0,0,.31-.44,0,0c.11-.15.2-.28.3-.44l0,0,.31-.44,0,0,.3-.43,0,0c.1-.13.21-.29.3-.43l0,0,.29-.41,0-.06.27-.4.06-.08c.09-.13.18-.25.26-.38l.06-.08.26-.38.07-.1.24-.35.09-.13.22-.32.11-.16c.08-.11.13-.2.21-.3l.12-.18.19-.28.14-.21.16-.24.17-.24.14-.21.19-.29.12-.17.2-.3.11-.16.22-.33.08-.12.25-.37.05-.08.29-.43v0l.31-.46L251.78,250.76l.56.12,329,174.85c.61-1.14,1.23-2.33,1.83-3.48l.06-.13.19-.35.14-.29.1-.19.21-.41,0-.07q6.81-13.31,12.59-27.2L252.72,251l356,108.77.11-.37,0-.08c0-.15.1-.3.14-.45l0-.1.13-.41,0-.15.11-.37.06-.18c0-.09,0-.2.08-.29l.08-.27,0-.13q.54-1.8,1.05-3.6v0l.15-.51v0c0-.16.09-.32.13-.48l0-.07c.05-.16.09-.31.13-.47l0-.07.12-.44,0-.12.12-.42,0-.12.12-.42,0-.13c0-.14.08-.27.11-.4l0-.15c0-.13.07-.26.1-.39l.05-.16c0-.13.07-.26.1-.39l0-.16c0-.12.07-.25.11-.38l0-.18.09-.35,0-.2c0-.12.07-.23.1-.35l0-.21.09-.33.06-.21.09-.34.06-.22c0-.11,0-.22.08-.33l.06-.23.08-.31.07-.25.08-.3.06-.25.08-.3.07-.27.07-.28.07-.29.07-.26.08-.32.06-.23c0-.11.05-.21.08-.33l.06-.22.09-.37,0-.18c0-.14.07-.29.11-.43l0-.12.11-.46,0-.1c0-.19.09-.36.13-.55h0c.23-.94.46-1.87.68-2.81v-.07l.12-.49,0-.12c0-.14.07-.29.1-.44l0-.16.09-.39,0-.2c0-.13.06-.23.09-.36l0-.2c0-.12.06-.24.08-.36l.06-.22c0-.11,0-.22.07-.33l.06-.26.06-.29c0-.09.05-.19.07-.28L616,332l.06-.3.06-.26.07-.32,0-.22c0-.12,0-.24.08-.35l0-.2c0-.13.06-.25.08-.38l0-.16.09-.41,0-.13c0-.15.07-.31.1-.46l0-.07c0-.17.07-.34.11-.51v0l.69-3.31L252.66,250.94l-.67-.27,371,38.62c.17-1.7.34-3.38.49-5.09v0c0-.18,0-.35,0-.52l0-.19,0-.38,0-.24,0-.32,0-.29,0-.27,0-.33,0-.22,0-.37,0-.19,0-.39v-.16c0-.14,0-.29,0-.43v-.11l0-.47v-.05q1-12.83,1.1-25.88l-374-3.28Zm1.22.74-.62-.2.33,0,.29.16ZM599,112.61,252.81,249,610.59,146.69l-.05-.18c0-.11-.07-.22-.1-.33l-.08-.28-.07-.26c0-.13-.08-.25-.11-.38l0-.16-.15-.53h0q-4.76-16.31-10.94-31.95ZM522.08-8.07,250.77,249.36a2,2,0,0,1,.19.22l0,0a.88.88,0,0,0,.05.15l.21-.08-.2.13,0,0h0l.12-.06h0l.56-.3h0l-.56.3.59-.3,371.79-32q-.36-4.2-.81-8.36V209c0-.14,0-.27,0-.4v0l-.09-.81v-.06c0-.12,0-.24,0-.36l0-.14,0-.35v-.12c0-.22,0-.44-.08-.66l0-.14c0-.11,0-.22,0-.33l0-.18,0-.32,0-.18c0-.19,0-.39-.07-.58l0-.18c0-.1,0-.21,0-.31l0-.2,0-.3,0-.19c0-.19-.05-.39-.08-.59l0-.16a3.11,3.11,0,0,0,0-.32l0-.19c0-.1,0-.21,0-.31l0-.16c0-.2,0-.4-.08-.61l0-.17,0-.32,0-.17c0-.11,0-.22,0-.33l0-.1-.09-.67,0-.15c0-.11,0-.23,0-.34l0-.15c0-.12,0-.23-.05-.35v0c0-.24-.06-.48-.1-.72l0-.15c0-.11,0-.22,0-.33l0-.17c0-.11,0-.22-.05-.33v-.08c0-.22-.06-.45-.1-.67l0-.17,0-.32,0-.2c0-.1,0-.2,0-.29l0-.21c0-.18,0-.35-.08-.52l0-.22,0-.29,0-.24,0-.26c0-.15,0-.31-.07-.47l0-.18-.06-.35,0-.19-.06-.39,0-.12c0-.17,0-.37-.08-.54v-.07c0-.16,0-.31-.08-.48v-.09c0-.2-.07-.4-.1-.61L252.47,249.14l.34-.14-.43.13L584.24,79.8c-.42-.82-.85-1.67-1.28-2.49l-.08-.15-.14-.27-.11-.2a2.44,2.44,0,0,0-.14-.28c-.06-.11-.12-.22-.17-.33l-.1-.18-.11-.22-.22-.41,0,0c-.16-.31-.33-.64-.5-1L252.28,249.16h0L581.36,74.27q-7-13.18-15-25.7L251.86,249.24l-.59.09L545.58,19.19l0,0-.31-.39v0q-4.68-6-9.59-11.74l0,0c-.11-.12-.21-.25-.32-.38l0-.06-.31-.35-.08-.1-.27-.32-.12-.13-.24-.28-.14-.17-.22-.25-.16-.19-.2-.22-.19-.22-.16-.19-.23-.27-.13-.14-.27-.31-.08-.1-.3-.34-.07-.07c-.1-.13-.22-.25-.33-.38l0,0Q527-2.9,522.08-8.07Zm-271,257.55h.09l-.12,0,0,0ZM337.67-114.7,251,247.18,372.22-104.63q-6.14-2.12-12.36-4h0l-.55-.17h0l-.53-.16h0l-.53-.16h0l-.52-.16h0l-.5-.15h-.06l-.5-.15,0,0-.51-.15H356l-.51-.15h0l-.53-.15h0l-.54-.16h0l-.54-.16h0l-1.11-.31h0q-7.44-2.12-15-3.93Zm-71.2-10L250.34,248.68l-.12.22h0l.1-.18V249h.06l.16.13L496.09-33h0l-.39-.34-.05,0-.36-.31-.09-.07-.32-.28-.13-.12-.28-.24-.18-.15-.24-.2-.2-.18-.22-.18-.23-.2-.18-.16-.27-.22-.15-.13L492.5-36l-.13-.11-.31-.26-.11-.1c-.12-.09-.23-.19-.34-.29l-.08-.06-.37-.31-.05,0-.41-.35h0q-5.83-4.87-11.85-9.52h0l-.43-.34h0l-.4-.31-.06,0-.38-.29-.07,0-.36-.28-.1-.07-.33-.25-.13-.1-.29-.22-.17-.13-.26-.2-.2-.15-.23-.17-.23-.18L475-50l-.27-.21-.14-.1-.33-.25-.1-.07-.36-.27-.06,0-.41-.3,0,0c-1.81-1.34-3.62-2.66-5.45-4L250.69,248.5v-.07l.13-.56L437.61-74.77c-2.19-1.26-4.39-2.51-6.6-3.73l-.09,0-.3-.16-.2-.12-.22-.11-.41-.23-.12-.07-.4-.21,0,0-3.5-1.88-174.85,329,.11-.47-.21.61,51.53-369.17c-11.77-1.64-23.75-2.74-35.84-3.26Z" transform="translate(125 125)"/></g></g></g></svg>