<svg xmlns="http://www.w3.org/2000/svg" xmlns:xlink="http://www.w3.org/1999/xlink" viewBox="0 0 770 770"><defs><style>.cls-1{fill:none;}.cls-2{clip-path:url(#clip-path);}.cls-3{fill:#fcee21;}.cls-4{fill:url(#名称未設定グラデーション_3);}</style><clipPath id="clip-path" transform="translate(135 135)"><rect class="cls-1" width="500" height="500"/></clipPath><radialGradient id="名称未設定グラデーション_3" cx="249.91" cy="250" r="384.94" gradientUnits="userSpaceOnUse"><stop offset="0" stop-color="#fff"/><stop offset="0.03" stop-color="#fff2e4"/><stop offset="0.07" stop-color="#ffdebb"/><stop offset="0.12" stop-color="#ffcc95"/><stop offset="0.17" stop-color="#ffbd75"/><stop offset="0.23" stop-color="#ffb059"/><stop offset="0.3" stop-color="#ffa543"/><stop offset="0.38" stop-color="#ff9d32"/><stop offset="0.48" stop-color="#ff9727"/><stop offset="0.62" stop-color="#ff9420"/><stop offset="1" stop-color="#ff931e"/></radialGradient></defs><title>radiation01</title><g id="レイヤー_2" data-name="レイヤー 2"><g id="レイヤー_1-2" data-name="レイヤー 1"><g class="cls-2"><circle class="cls-3" cx="385" cy="385" r="385"/><path class="cls-4" d="M250-135H239.81l-.5,0h-2l-.53,0h-.7l-.56,0h-.05l-.58,0h-.05l-.58,0h0l-.6,0h0q-11.9.49-23.59,1.71l39.29,380.89-.27-.59,0-.09v0L94.4-102.26c-1.3.58-2.61,1.16-3.9,1.75h0l-.46.21-.09,0-.4.18-.16.07-.36.17-.19.09-.34.15-.23.11-.3.14-.26.12-.27.13-.3.14-.24.11-.33.15-.22.1-.38.18-.15.08-.46.22-.09,0q-10.19,4.81-20,10.22h0l-.5.28-.06,0-.47.26-.09,0-.42.23-.13.07-.37.21-.18.1-.33.18-.21.12-.25.14-.3.17h0l-3.19,1.81,190.44,332,.15.68L25.06-62.49l-.19.14-.16.12-.33.23-.15.11-.34.25-.13.09-.35.26-.11.08-.39.28,0,0q-15.09,11-29,23.48L249.42,249.15l0,.19,0,.12-.27,0L-34.6-9.29c-.56.61-1.11,1.23-1.66,1.84l-.05,0c-.12.13-.24.26-.35.4l-.09.09-.3.34-.13.14-.27.3-.14.16-.24.28L-38-5.5l-.21.24-.19.22-.18.2c-.08.08-.16.18-.23.26l-.13.14-1.76,2,0,.05-.32.37-.07.08-.31.37-.07.07-.32.37L-41.9-1l-.32.37-.06.07-.32.37-.06.07c-.12.13-.21.25-.33.39l0,0c-.86,1-1.73,2-2.57,3.05l0,0-.33.4-.05.06-.31.36-.08.1-.28.34-.1.12L-47,5l-.12.14-.26.32-.11.13-.27.33-.11.14-.26.31-.12.14a4,4,0,0,1-.26.32l-.11.14-.26.33,0,0-.61.74-.09.11-.19.24-.19.24-.18.22-.2.25-.17.21-.21.26-.17.22-.21.26-.15.19-.23.29-.15.18-.24.31-.13.16-.26.33-.11.14-.29.37-.08.1-.33.41,0,.07-1.9,2.45v0l-.37.47,0,0c-.12.14-.23.29-.35.44l0,.05-.34.44,0,.06-.34.44,0,0-.35.46,0,0q-1.5,2-3,4v0L248.54,249.3l-.7-.15L-82.06,55l-.15.26-.05.09-.24.4-.07.12-.22.38-.09.15-.2.35-.11.18-.19.33-.12.21-.17.3-.15.25c-.05.09-.09.17-.15.26l-.17.31-.13.21c-.07.14-.15.27-.23.4l-.07.12-.3.54v0c-.1.17-.2.34-.29.51l0,.08c-.09.15-.18.3-.26.46l-.06.09-.24.44-.07.11-.24.43,0,.1-.25.44-.05.09c-.09.15-.17.3-.25.45l0,.09-.26.46,0,.07c-.09.17-.18.34-.28.5v0q-7.08,12.84-13.21,26.27L247.31,249l-.12,0,.25.09.4.18-380.33-43.45q-1.32,11.48-1.94,23.14h0c0,.21,0,.41,0,.61h0l0,.6v0q-.39,7.74-.48,15.57l384.1,4.13.16.1-.84.47-.37.16-381.43,35.14.09,1v0c0,.15,0,.3.05.45v.07c0,.15,0,.3.05.45v0q.66,6.87,1.57,13.67L247.67,250.8l-.4.17.61-.19L-86.27,437.63c.28.48.55,1,.83,1.46l0,0,.25.45.09.16.18.32.15.25.09.17.17.3.06.1c.28.5.57,1,.86,1.49l0,.05c.28.48.56,1,.85,1.45l.09.16.15.26.13.22.12.21c.09.14.18.29.26.44v0c.09.14.19.31.27.46l0,.06c.1.16.18.31.28.46h0c.8,1.37,1.62,2.71,2.44,4.07l327-199.47,1-.13L-40.23,503h0c.12.15.25.29.38.44l0,0,.36.41.06.07.34.4.06.07c.12.12.23.25.34.38l.08.09.36.4,0,0,.37.42,0,0c.41.46.82.93,1.24,1.39l.06.06.34.38.13.15.27.29.17.19.23.25.18.2.22.25.19.21.21.23.2.22.2.22.22.23.17.19.24.26.16.18.25.27.13.14.28.3.09.09,1.44,1.56.06.06.32.33.09.1.3.32.1.12.3.31.11.11.3.32.11.12.29.31.12.12.29.3.12.13.29.31.1.1.32.33.06.06,1.92,2,0,0,.3.32.13.12.28.29.13.14.28.28.14.15.27.26.16.17.25.25.18.18.24.24.19.19.22.23.22.22.2.2.27.27.15.15.37.37,0,0,.88.88,0,0,.41.4.05.05.39.38.06.06.38.37.06.07.39.38,0,0,.42.42h0q3.14,3,6.34,6l261.8-281-.08.62L18.26,557.47l1.26.94.14.11.24.18.24.18.19.14.29.22.13.1.35.25.11.09.37.27.09.07c.13.09.26.18.38.28l.09.06.4.3,0,0L23,561l0,0,.94.68,0,0,.95.69h0q6,4.35,12.24,8.48h0l.47.32.11.07.38.25.14.09.35.23.2.13.28.18.25.17.23.15.3.19.18.12.33.21.15.11.37.23.11.08.4.25.08.06L42,574l.06,0,.44.28,0,0,.48.3h0q3.38,2.16,6.8,4.25l199.4-326.86-.14.6L86.71,598.76l3.23,1.49,0,0,.45.2.11,0,.4.19.15.06.37.17.2.09.33.15.22.1.32.15.24.1.31.14.24.11.31.13.25.12.29.13.28.12.27.12.31.13.24.11.34.15.22.09.5.23.05,0,.56.24.15.06.4.18.21.09.35.15.23.1.32.14.24.1.33.14.24.1.31.13.24.1.32.14.25.11.31.13.25.1.31.13.26.11.29.12.27.11.28.12.29.12.26.11.3.12.24.1.33.13.17.08.39.15,0,0,2,.84.09,0,.46.19.09,0,.44.18.12,0,.43.17.12.05.44.17.12,0,.45.18.09,0,.47.18.08,0,.48.19,0,0,.51.2h0q6.33,2.45,12.75,4.67L249,252.87,162.23,625q12.33,2.88,25,4.95h0l.53.09h.12l.46.08.17,0,.41.06.21,0,.36.06.25,0,.32.05.29,0,.29,0,.32,0,.24,0,.37.05.2,0,.4.07.16,0,.44.07h.12l.48.07h.07l.52.08h0l4.59.64L249.2,252.3l.59-1.26,0,0-8.28,383.91c1.92,0,3.84.07,5.77.08h7.09l1.15,0h1.32l1.19,0h.07l.51,0h.7l1.19,0h.08l.51,0h.11l.55,0h0l1.22,0h0l.55,0h.07l.57,0h0l1.21,0h0l.53,0h.11l.52,0h.06l1.18,0H268l.46,0h.16l.44,0h.14l.56,0h.09l.46,0h.24l.32,0h.26l.29,0h.27l.27,0,.59,0h.18l.36,0h.18l.37,0h.13q3.88-.24,7.75-.56l-31-381.94.37.88,70.29,375.76q7.42-1.38,14.75-3.06h0l.58-.14h0l.57-.13.05,0,.55-.12.07,0,.52-.12.09,0,.52-.13.09,0,.51-.12.1,0,.51-.12.09,0,.52-.12.08,0,.55-.13.05,0,.58-.14h0l4.23-1.07h0l.59-.15H347l.54-.15h.07l.53-.14.08,0,.53-.14.06,0,.53-.14.07,0,.54-.14.05,0,.56-.15h0c3.21-.86,6.39-1.77,9.57-2.71L251,252.79,397.83,605.6q12.93-5.39,25.36-11.66h0l.49-.26h0l.48-.25.06,0,.46-.23.06,0,.46-.24.08,0,.45-.23.06,0,.46-.24.05,0c.64-.33,1.28-.66,1.91-1l.13-.06.3-.16.23-.12.27-.15.27-.14.26-.13.28-.15.24-.13.3-.16.23-.12.32-.17.2-.11.34-.18.2-.11.35-.18.17-.1.39-.21.14-.07.44-.24.08,0,.49-.26,0,0-183-336-.12-.61L468,567.36c1.37-.94,2.73-1.9,4.09-2.86l0,0,.47-.34,0,0,.47-.34,0,0,.47-.33,0,0,.46-.33.05,0,.49-.36h0l1.51-1.09.07-.06.42-.3.13-.1.35-.25.18-.14.3-.22.21-.15.27-.2.22-.16.27-.2.22-.16.25-.19.24-.18.25-.18.24-.18.23-.17.26-.19.21-.16.27-.2.18-.14.3-.23.07-.05,1.24-.94.09-.06.35-.27.13-.1.33-.25.14-.11.32-.24.16-.12.32-.25.14-.11.32-.25L485,555l.31-.24.16-.12.31-.24.16-.13.32-.24.14-.11a4.19,4.19,0,0,1,.33-.26l.12-.1.35-.27,0,0,1.18-.92.17-.14.27-.21.2-.16.25-.2.23-.18.23-.18.24-.2.23-.17.26-.21.2-.16.28-.23.18-.14.31-.26.15-.12.34-.27.13-.11.4-.32.06,0c2.43-2,4.82-4,7.2-6L250.63,251l-.08-.46.15,0L528.84,515.47q7.54-7.92,14.63-16.26l0,0,.38-.45,0-.05.35-.41.06-.07.33-.39.08-.09c.1-.13.21-.26.32-.38l.07-.1.32-.37.08-.1.33-.39.06-.08.36-.43,0,0c.4-.47.79-.95,1.19-1.43l0,0,.35-.43.09-.11c.1-.12.19-.24.29-.35l.13-.16.25-.3.15-.19.23-.28.15-.19.23-.28.16-.2.22-.27.15-.2.23-.27.16-.21.21-.26.17-.21.21-.26.17-.21.21-.27.16-.2.19-.23.4-.51.15-.19.2-.26.17-.21c.07-.09.14-.17.2-.26l.17-.22.21-.26.16-.2.22-.28.14-.19c.08-.09.15-.19.23-.29l.14-.18c.07-.09.15-.2.23-.29l.14-.18.23-.3.12-.16.16-.21L251.31,250.66l.27,0,.45.11L578.91,450.22q6.23-10.22,11.81-20.8l0,0,.25-.49,0,0c.08-.16.16-.3.24-.47l0-.06.24-.45,0-.06c.08-.14.16-.3.23-.44l.05-.09c.07-.14.14-.28.22-.42l.05-.11c.08-.14.14-.25.21-.39l.07-.14.19-.37.08-.16.17-.33.11-.21.15-.3.12-.24.14-.26.14-.28.11-.22c.06-.11.11-.21.16-.32l.1-.19L594,423l.07-.14.21-.41,0-.09.23-.46,0-.05c.78-1.57,1.56-3.16,2.33-4.75L252.61,251l.29.07-.57-.2-.05,0L631.6,301.42q.46-3.51.87-7.05l0-.14,0-.31c0-.1,0-.2,0-.3l0-.17c0-.16,0-.3,0-.45v0q1.14-10.26,1.74-20.68v0l0-.56v-.1l0-.5v-.15c0-.14,0-.3,0-.44v-.22c0-.12,0-.25,0-.38s0-.18,0-.27v-.33l0-.3v-.29c0-.12,0-.24,0-.36v-.24c0-.13,0-.27,0-.41v-.18c0-.16,0-.32,0-.49v-.09l0-.56v0c.05-1.22.1-2.44.13-3.66l-383.6-12.42-.22-.11.17.11-.36,0-.22-.16.11-.07.3.14-.27-.16,1-.51L634,222.66c0-.13,0-.26,0-.39l0-.18c0-.14,0-.26,0-.4v-.13c0-.18,0-.36,0-.54V221c-.23-3-.49-6.07-.78-9.08v0l-.06-.58v0c0-.16,0-.35-.05-.51v-.09c0-.17,0-.34,0-.51l0-.16c0-.14,0-.28,0-.42l0-.23,0-.34,0-.23c0-.13,0-.29,0-.41l0-.29,0-.19c0-.2-.05-.39-.07-.59v-.07c-.31-2.87-.66-5.74-1-8.59L252.32,249.2l.53-.21-.51.14,338-179.33q-2.19-4.14-4.48-8.21v0l-.51-.89,0-.09-.26-.46-.08-.14-.13-.24-.13-.22-.18-.31-.13-.23-.12-.2c-.06-.12-.14-.25-.2-.36l-.1-.17-.18-.31-.06-.12-.25-.42-.06-.1c-.08-.15-.17-.3-.26-.45v0c-.09-.17-.18-.31-.27-.47l0,0c-1.28-2.2-2.58-4.38-3.91-6.56l-327,199.47h0l-.83.11L545.72,3.46a387.55,387.55,0,0,0-27.2-29.37L250.58,249.36l.09-.62,237.76-301Q473.79-63.86,458-74l0,0-.41-.26-.11-.06-.37-.24-.13-.09-.36-.22-.15-.1-.34-.22-.17-.1-.18-.12-205,323.56.17-.66,170-342.53q-7.82-3.87-15.81-7.4l-.06,0-.5-.22-.09,0L404-103l-.13,0-.43-.19-.14-.07-.4-.17-.18-.08-.38-.16-.19-.08-.37-.16-.2-.09-.35-.15-.21-.09-.35-.14-.21-.1-.39-.16-.17-.07-.42-.18-.15-.06-.55-.23-.3-.13-.24-.1-.33-.14-.24-.1-.32-.13-.23-.1-.33-.13-.23-.1-.33-.13-.22-.09-.34-.14-.23-.09-.33-.14-.22-.09-.34-.14-.21-.08-.36-.15-.19-.08-.37-.14-.2-.08-.35-.15-.2-.07-.36-.15-.21-.08-.35-.14-.21-.08-.35-.14-.19-.08-.67-.26-.25-.1-.27-.1-.3-.12-.25-.09-.32-.13-.24-.09-.34-.13-.22-.09-.36-.14-.19-.07-.4-.15-.15-.06-.44-.17-.13-.05-.46-.17-.1,0-.51-.19-.06,0-1.15-.43L251,247.09l95-370q-8.12-2.09-16.37-3.82h0l-.61-.13h0c-2.85-.59-5.72-1.16-8.59-1.69h0l-.6-.11h-.05l-.55-.1-.09,0-.52-.09-.1,0L318-129l-.12,0-.48-.08-.15,0-.45-.08-.18,0-.43-.08-.18,0-.42-.07-.2,0-.4-.06-.22,0-.38-.06-.24,0-.37-.07-.24,0-.35-.05-.27,0-.32-.05-.29-.05-.28,0-.34-.06-.24,0-.38-.06-.17,0-.45-.08h0l-3.67-.56L250.84,247.6l-.07.18.06-.12-.07.45-.28.44.29-.77-.42.86,16.56-383.28c-3.75-.16-7.5-.27-11.28-.32H250V249.28h0V-135Zm-.65,383.27-.09-.27.08.13v.14Zm1,.91.25-.32-.15.59-.11,0v-.29Zm.55.36h0l-.07,0,0,0Zm-.31.37.85-.34-.71.43-.14-.09Zm-.26-.33h.07l-.07.06v-.06Zm-1,.38-.12-.05h.13l0,0-.05,0Zm.65,0v0h0v0Zm.49,0h0l.17.08-.12.06-.08-.06h0v-.08Zm-1.13,0,0,0,.1.07h0l-.12-.06Zm.64,0Zm-1.27.34.56-.34.1.06-.66.28Zm-.22.25.89-.28-.25.22-.64.06Zm1.16-.11.13-.14,0,.06v.07Zm-.06.06.19,0-.14.42-.32.42.16-.7.11-.12Zm1,1.22,0-.37.06.09.23.75-.26-.47Zm-1.32.17.14-.23-.17.51,0-.28ZM170.48-126.78l-.35.08-.1,0-.52.11h0l-.56.12h0q-10.23,2.19-20.25,4.92h0l-.44.12-.16,0-.37.1-.22.06-.32.09-.29.08-.27.07-.32.09-.25.07-.36.1-.2.06-.41.11-.16.05-.45.13-.13,0-.48.14-.1,0-.53.15,0,0-.58.16h0q-5.38,1.58-10.71,3.29L249,247.26l-78.55-374ZM-115.2,127.78c-.36,1.08-.71,2.14-1.06,3.22h0l-.18.55v0c-.07.19-.12.35-.18.54v0c-.06.17-.11.34-.17.52v0c-.06.16-.11.34-.17.51l0,.08c0,.16-.1.32-.16.49l0,.07-.15.49,0,.09c-.22.71-.44,1.39-.65,2.1l0,.09-.12.37-.06.2c0,.12-.06.22-.1.34l-.08.25-.09.31-.09.27-.08.3-.09.29-.09.29-.09.29-.08.28-.09.32-.08.26-.1.32-.08.27-.09.32-.08.26-.09.32-.08.27-.09.32-.08.27-.09.31-.08.27-.09.33-.08.26-.09.33-.07.25c0,.12-.07.24-.1.35l-.07.24c0,.12-.07.24-.1.35l-.06.24c0,.12-.07.24-.11.36l-.06.23-.11.38,0,.21-.16.55-.06.22c0,.13-.07.27-.11.4s0,.16-.07.26l-.09.33-.07.26-.09.33-.07.27-.09.32-.07.28-.08.3-.08.3-.08.29-.08.3-.08.29-.08.31-.07.28-.08.3-.08.3-.07.29-.08.31-.07.27-.08.32-.08.29-.07.29-.08.3-.08.3-.07.29c0,.1,0,.2-.08.31l-.07.28-.07.3c0,.11,0,.2-.08.3s-.05.21-.07.31l-.07.28-.09.36-.06.23c0,.17-.09.35-.13.52v.07l-.15.61v0l-.14.56,0,.12c0,.15-.07.31-.11.47l0,.17c0,.15-.07.29-.1.44l0,.17c0,.14-.07.28-.11.43l0,.17c0,.15-.06.29-.1.44l0,.15c0,.15-.08.31-.11.46l0,.13c0,.16-.08.32-.11.49l0,.11c0,.16-.08.33-.11.49l0,.11-.12.52v.07c0,.19-.09.37-.13.56v0c0,.2-.09.4-.13.6h0c0,.2-.09.41-.14.61L247.19,249-115.2,127.78ZM247.27,251l-365.06,113.2q5.4,17.43,12.38,34.11h0c.08.18.16.36.23.55l.07.15.16.39.11.25.12.29.14.33.09.2.16.4.06.14.2.45,0,.06.1.22L247.27,251Zm5.63.05L612.43,380.2c.27-.77.55-1.55.83-2.33l0-.09c.05-.15.11-.31.16-.47l.08-.21.12-.34c0-.11.06-.19.1-.3l.09-.26.12-.34.07-.21c.05-.13.09-.26.13-.39l.06-.17c0-.14.1-.27.14-.41l0-.14c.05-.14.11-.3.15-.44l0-.12.16-.46,0-.09c.06-.17.11-.32.16-.49l0,0q2.82-8.38,5.26-16.93h0l.15-.5,0-.09c.05-.16.09-.31.13-.47l0-.12.12-.44,0-.15.12-.42,0-.16c0-.13.07-.28.11-.41l0-.18.11-.41.05-.17.11-.41,0-.17c0-.13.08-.29.11-.42l0-.17c0-.13.07-.27.11-.4l.05-.18.11-.42,0-.15.12-.43,0-.14c0-.16.08-.3.12-.45l0-.08c.05-.17.09-.34.14-.5v0c.3-1.12.59-2.26.88-3.39v0c0-.2.09-.36.14-.56v0c0-.18.09-.36.14-.54v-.05l.14-.55v0l.14-.56h0c.08-.29.15-.58.22-.87L252.9,251ZM607.2,106.08,252.85,249,620.2,143.93l0-.14-.11-.41-.08-.25-.09-.32-.08-.29-.09-.29-.09-.32-.07-.26c0-.1-.07-.23-.1-.33l-.07-.24c0-.12-.08-.24-.11-.36l-.06-.21-.12-.38-.05-.19-.12-.41,0-.13c0-.16-.09-.31-.14-.46l0-.09-.15-.5v0q-2.4-7.92-5.12-15.68v0l-.17-.5,0-.08-.16-.47,0-.1-.16-.45,0-.13-.16-.43,0-.13-.15-.43-.05-.15c0-.13-.1-.28-.15-.4l-.06-.17-.14-.39-.07-.19-.14-.38-.07-.2-.13-.35-.09-.25-.12-.32-.1-.28-.11-.28c-.06-.19-.13-.38-.2-.56l0-.11-.18-.47,0-.14-.16-.43-.06-.15-.16-.43,0-.13c-.06-.15-.11-.31-.17-.46l0-.09-.18-.49,0-.09-.18-.49,0-.08c-.07-.17-.13-.34-.2-.5l0-.07-.21-.53v0c-.07-.18-.14-.37-.22-.56h0q-.9-2.33-1.83-4.63Z" transform="translate(135 135)"/></g></g></g></svg>