<?xml version="1.0" encoding="UTF-8"?>
<svg width="240px" height="72px" viewBox="0 0 240 72" version="1.1" xmlns="http://www.w3.org/2000/svg" xmlns:xlink="http://www.w3.org/1999/xlink">
    <!-- Generator: Sketch 61 (89581) - https://sketch.com -->
    <title>logo</title>
    <desc>Created with Sketch.</desc>
    <g id="Symbols" stroke="none" stroke-width="1" fill="none" fill-rule="evenodd">
        <g id="logo._black" transform="translate(0.000000, 0.000000)" fill="#000000" fill-rule="nonzero">
            <path d="M3.88286685,72 L3.88286685,2.7480916 L0,2.7480916 L0,72 L3.88286685,72 Z M16.9292995,71.7644493 L16.9292995,9.42202835 L38.0520951,30.778626 L25.0056625,43.8909487 L27.7236693,46.6390403 L64.533247,9.42202835 L64.533247,71.7644493 L68.4161139,71.7644493 L68.4161139,0 L40.6924446,28.0305344 L13.0464326,0 L13.0464326,71.7644493 L16.9292995,71.7644493 Z M113.204983,71.7448201 L113.204983,29.6990185 L93.6935771,29.6990185 L93.6935771,27.6379498 L117.980909,27.6379498 L117.980909,24.693566 L93.6935771,24.693566 L93.6935771,19.8058888 L90.781427,19.8058888 L90.781427,24.693566 L85.9472577,24.693566 L85.9472577,27.6379498 L90.781427,27.6379498 L90.781427,32.6434024 L110.292833,32.6434024 L110.292833,68.8004362 L90.781427,68.8004362 L90.781427,71.7448201 L113.204983,71.7448201 Z M151.93658,70.7437296 L151.93658,36.4711014 L153.975085,36.4711014 L153.975085,56.0218103 L156.887235,56.0218103 L156.887235,36.4711014 L168.535836,36.4711014 L168.535836,53.0774264 L158.751011,53.0774264 L158.751011,56.0218103 L171.447986,56.0218103 L171.447986,33.5267176 L156.887235,33.5267176 L156.887235,28.521265 L153.975085,28.521265 L153.975085,33.5267176 L151.93658,33.5267176 L151.93658,28.521265 L149.02443,28.521265 L149.02443,33.5267176 L144.19026,33.5267176 L144.19026,36.4711014 L149.02443,36.4711014 L149.02443,70.7437296 L151.93658,70.7437296 Z M205.345413,71.8037077 L205.345413,61.2039258 L213.674163,52.8418757 L228.234913,67.563795 L240,55.6684842 L237.845009,53.6074155 L237.796551,53.6560719 C237.127681,54.3278162 229.735994,61.7553286 228.234913,63.4416576 L213.674163,48.7197383 L205.345413,56.9640131 L205.345413,19.8647764 L202.433263,19.8647764 L202.433263,71.8037077 L205.345413,71.8037077 Z" id="logo"></path>
        </g>
    </g>
</svg>