<svg xmlns="http://www.w3.org/2000/svg" viewBox="0 0 200.01 31.88"><defs><style>.cls-1{fill:#040000;}</style></defs><title>logo_contents_t-shirt</title><g id="レイヤー_2" data-name="レイヤー 2"><g id="レイヤー_1-2" data-name="レイヤー 1"><path class="cls-1" d="M116.73,6.5a.72.72,0,0,1-.73.74h-6.66V31.13a.73.73,0,0,1-.74.74h-2.45a.73.73,0,0,1-.74-.74V7.24H98.76a.74.74,0,1,1,0-1.48H116A.73.73,0,0,1,116.73,6.5Z"/><path class="cls-1" d="M122.41,20.73V19.14a.47.47,0,0,1,.48-.47h9.44a.46.46,0,0,1,.47.47v1.59a.47.47,0,0,1-.47.47h-9.44A.48.48,0,0,1,122.41,20.73Z"/><path class="cls-1" d="M141,29.69a.68.68,0,0,1-.17-.43.59.59,0,0,1,.17-.41l16-16a.64.64,0,0,1,.84,0l2,2a.59.59,0,0,1,.17.43.52.52,0,0,1-.17.41l-16,16a.59.59,0,0,1-.43.19.56.56,0,0,1-.41-.19Zm7.07-16.42a.61.61,0,0,1-.6.6h-6a.59.59,0,0,1-.6-.6.61.61,0,0,1,.6-.6h6A.63.63,0,0,1,148.09,13.27Zm-.6,2.42a.61.61,0,0,1,.6.6.63.63,0,0,1-.6.6h-6a.61.61,0,0,1-.6-.6.59.59,0,0,1,.6-.6Z"/><path class="cls-1" d="M176.91,16.68a.61.61,0,0,1,.57.36.65.65,0,0,1-.14.65l-6,6a.58.58,0,0,1-.84,0,.56.56,0,0,1-.17-.41.57.57,0,0,1,.17-.43s3.55-3.58,5-5h-6v13.4a.6.6,0,0,1-.6.6h-2a.6.6,0,0,1-.6-.6V17.88h-1.39a.61.61,0,0,1-.6-.6.6.6,0,0,1,.6-.6h1.39V15.27a.59.59,0,0,1,.6-.6h2a.59.59,0,0,1,.6.6v1.41Z"/><path class="cls-1" d="M199.85,14.88a.63.63,0,0,1,.16.41.73.73,0,0,1-.16.43l-16,16a.6.6,0,0,1-.84,0l-2-2a.57.57,0,0,1,0-.87l16-16a.58.58,0,0,1,.84,0Zm-18.27-3.63a.6.6,0,0,1,1.2,0v10a.6.6,0,0,1-1.2,0Zm3.22,0a.6.6,0,0,1,.6-.6.6.6,0,0,1,.6.6v10a.61.61,0,0,1-.6.6.6.6,0,0,1-.6-.6Z"/><path class="cls-1" d="M3.9,0a.89.89,0,0,1,.9.9V31a.9.9,0,0,1-.9.91H.9A.9.9,0,0,1,0,31V.91A.89.89,0,0,1,.9,0Z"/><path class="cls-1" d="M34.9.91V31a.92.92,0,0,1-.9.91H31a.94.94,0,0,1-.61-.26.89.89,0,0,1-.29-.65V6.11L16.57,19.6a.94.94,0,0,1-1.27,0,.92.92,0,0,1,0-1.3L17.68,16,10.83,9.1V31A.91.91,0,1,1,9,31V.91A.91.91,0,0,1,9.56.08a.93.93,0,0,1,1,.18l11.37,11.4L30.21,3.4a1.14,1.14,0,0,1,.11-.11l3-3A.88.88,0,0,1,34.07,0a.77.77,0,0,1,.29.07A.91.91,0,0,1,34.9.91Z"/><path class="cls-1" d="M40.78,13.87a.59.59,0,0,1-.6-.6.61.61,0,0,1,.6-.6h1.39V11.28a.6.6,0,1,1,1.2,0v1.39h9.39a.62.62,0,0,1,.6.6.6.6,0,0,1-.6.6H43.37v.82h7.39a.59.59,0,0,1,.6.6v16a.6.6,0,0,1-.6.6h-8a.6.6,0,0,1-.6-.6v-2a.6.6,0,0,1,.6-.6h5.4V15.89h-5.4a.61.61,0,0,1-.6-.6V13.87Z"/><path class="cls-1" d="M62.32,16.68h.82V15.27a.59.59,0,0,1,.6-.6.61.61,0,0,1,.6.6v1.41h3.38a.6.6,0,0,1,.6.6v8a.59.59,0,0,1-.6.6h-4a.59.59,0,0,1-.6-.6.6.6,0,0,1,.6-.6h3.38V17.88H64.34v5.4a.63.63,0,0,1-.6.6.61.61,0,0,1-.6-.6v-5.4h-.82v13.4a.6.6,0,0,1-.6.6h-2a.6.6,0,0,1-.6-.6V17.88H57.74a.61.61,0,0,1-.6-.6.6.6,0,0,1,.6-.6h1.39V15.27a.59.59,0,0,1,.6-.6h2a.59.59,0,0,1,.6.6Z"/><path class="cls-1" d="M89.24,24.84a.62.62,0,0,1,0,.87l-4,4a.59.59,0,0,1-.43.19.65.65,0,0,1-.43-.19l-5.57-5.57-1.39,1.39v5.77a.6.6,0,0,1-.6.6h-2a.6.6,0,0,1-.6-.6v-20a.6.6,0,0,1,.6-.6h2a.6.6,0,0,1,.6.6V23.83l1-1a.58.58,0,0,1,.84,0l5.57,5.57,3.58-3.58A.64.64,0,0,1,89.24,24.84Z"/></g></g></svg>