<svg xmlns="http://www.w3.org/2000/svg" viewBox="0 0 170.9 31.93"><defs><style>.cls-1{fill:#040000;}</style></defs><title>logo_contents_mikke</title><g id="レイヤー_2" data-name="レイヤー 2"><g id="レイヤー_1-2" data-name="レイヤー 1"><path class="cls-1" d="M100.68,16a.75.75,0,0,1,1.06,0L114,28.21a.72.72,0,0,1,.21.53.62.62,0,0,1-.21.5l-2.44,2.48a.88.88,0,0,1-.53.2,1,1,0,0,1-.53-.2L98.24,19.44a.7.7,0,0,1,0-1Zm1.06-7.36,9.8,9.8a.7.7,0,0,1,0,1,.74.74,0,0,1-1.06,0l-9.8-9.8a.72.72,0,0,1,0-1A.75.75,0,0,1,101.74,8.61ZM113,17l-9.81-9.8a.74.74,0,1,1,1-1.06L114,16a.72.72,0,0,1-1,1Z"/><path class="cls-1" d="M121.26,26.91l9.82-9.77a.58.58,0,0,1,.84,0l2,2a.58.58,0,0,1,.2.41.6.6,0,0,1-.2.43l-9.81,9.77a.58.58,0,0,1-.84,0l-2-2a.6.6,0,0,1-.17-.44A.51.51,0,0,1,121.26,26.91Zm1.32-5.57a.61.61,0,0,1-.6.6.62.62,0,0,1-.6-.6v-8a.6.6,0,0,1,.6-.6.6.6,0,0,1,.6.6Zm3,0a.62.62,0,0,1-.6.6.61.61,0,0,1-.6-.6v-8a.6.6,0,0,1,.6-.6.6.6,0,0,1,.6.6Z"/><path class="cls-1" d="M161.05,17.33a.6.6,0,0,1-.6.6H156.7L142.88,31.75a.58.58,0,0,1-.84,0l-2-2a.63.63,0,0,1-.17-.41.66.66,0,0,1,.17-.43l11-11h-4.3l-3.81,3.82a.59.59,0,1,1-.84-.84l10-10a.66.66,0,0,1,.87,0,.67.67,0,0,1,0,.86l-5,5h12.56A.6.6,0,0,1,161.05,17.33Z"/><path class="cls-1" d="M168.24,24.91a.59.59,0,0,1-.6-.6v-14a.6.6,0,0,1,.6-.6h2.06a.61.61,0,0,1,.6.6v14a.56.56,0,0,1-.19.41.59.59,0,0,1-.43.19Zm0,7a.61.61,0,0,1-.6-.6v-4a.61.61,0,0,1,.6-.6h2.06a.62.62,0,0,1,.6.6v4a.59.59,0,0,1-.19.43.66.66,0,0,1-.43.17Z"/><path class="cls-1" d="M3.9,0a.89.89,0,0,1,.9.9V31a.9.9,0,0,1-.9.91H.9A.9.9,0,0,1,0,31V.91A.89.89,0,0,1,.9,0Z"/><path class="cls-1" d="M34.9.91V31a.92.92,0,0,1-.9.91H31a.94.94,0,0,1-.61-.26.89.89,0,0,1-.29-.65V6.11L16.57,19.6a.94.94,0,0,1-1.27,0,.92.92,0,0,1,0-1.3L17.68,16,10.83,9.1V31A.91.91,0,1,1,9,31V.91A.91.91,0,0,1,9.56.08a.93.93,0,0,1,1,.18l11.37,11.4L30.21,3.4a1.14,1.14,0,0,1,.11-.11l3-3A.88.88,0,0,1,34.07,0a.77.77,0,0,1,.29.07A.91.91,0,0,1,34.9.91Z"/><path class="cls-1" d="M40.78,13.87a.59.59,0,0,1-.6-.6.61.61,0,0,1,.6-.6h1.39V11.28a.6.6,0,1,1,1.2,0v1.39h9.39a.62.62,0,0,1,.6.6.6.6,0,0,1-.6.6H43.37v.82h7.39a.59.59,0,0,1,.6.6v16a.6.6,0,0,1-.6.6h-8a.6.6,0,0,1-.6-.6v-2a.6.6,0,0,1,.6-.6h5.4V15.89h-5.4a.61.61,0,0,1-.6-.6V13.87Z"/><path class="cls-1" d="M62.32,16.68h.82V15.27a.59.59,0,0,1,.6-.6.61.61,0,0,1,.6.6v1.41h3.38a.6.6,0,0,1,.6.6v8a.59.59,0,0,1-.6.6h-4a.59.59,0,0,1-.6-.6.6.6,0,0,1,.6-.6h3.38V17.88H64.34v5.4a.63.63,0,0,1-.6.6.61.61,0,0,1-.6-.6v-5.4h-.82v13.4a.6.6,0,0,1-.6.6h-2a.6.6,0,0,1-.6-.6V17.88H57.74a.61.61,0,0,1-.6-.6.6.6,0,0,1,.6-.6h1.39V15.27a.59.59,0,0,1,.6-.6h2a.59.59,0,0,1,.6.6Z"/><path class="cls-1" d="M89.24,24.84a.62.62,0,0,1,0,.87l-4,4a.59.59,0,0,1-.43.19.65.65,0,0,1-.43-.19l-5.57-5.57-1.39,1.39v5.77a.6.6,0,0,1-.6.6h-2a.6.6,0,0,1-.6-.6v-20a.6.6,0,0,1,.6-.6h2a.6.6,0,0,1,.6.6V23.83l1-1a.58.58,0,0,1,.84,0l5.57,5.57,3.58-3.58A.64.64,0,0,1,89.24,24.84Z"/></g></g></svg>