<svg xmlns="http://www.w3.org/2000/svg" viewBox="0 0 194.45 31.88"><defs><style>.cls-1{fill:#040000;}</style></defs><title>logo_text_find</title><g id="レイヤー_2" data-name="レイヤー 2"><g id="レイヤー_1-2" data-name="レイヤー 1"><path class="cls-1" d="M49.51,28.34v2.45a.72.72,0,0,1-.74.73H36.52a.72.72,0,0,1-.74-.73V24.16H34.36L27.2,31.32a.72.72,0,0,1-1,0,.75.75,0,0,1,0-1.06l6.1-6.1h-.68a.73.73,0,0,1-.73-.74V11.9H29.15a.76.76,0,0,1-.74-.74.74.74,0,0,1,.74-.74h1.71v-1H29.15a.74.74,0,1,1,0-1.47h1.71V6.24a.73.73,0,0,1,.73-.74h9.82a.73.73,0,0,1,.73.74V23.42a.73.73,0,0,1-.73.74H39.7V27.6h9.07A.73.73,0,0,1,49.51,28.34ZM40.67,7H34.78V8H39a.74.74,0,1,1,0,1.47H34.78v1H39a.74.74,0,0,1,.74.74.76.76,0,0,1-.74.74H34.78V22.68h5.89Z"/><path class="cls-1" d="M49.41,13.53a.6.6,0,0,1-.6-.6.59.59,0,0,1,.6-.6h12a.6.6,0,0,1,.6.6v18a.6.6,0,0,1-.6.6h-8a.6.6,0,0,1-.6-.6v-2a.6.6,0,0,1,.6-.61h5.4V13.53Z"/><path class="cls-1" d="M68,31.53a.6.6,0,0,1-.6-.6v-20a.6.6,0,0,1,.6-.6.62.62,0,0,1,.6.6v20A.62.62,0,0,1,68,31.53Zm10.59-19.2H80a.61.61,0,0,1,.6.6.6.6,0,0,1-.6.6H78.61v17.4a.6.6,0,0,1-.6.6H74a.6.6,0,0,1-.6-.6v-2a.6.6,0,0,1,.6-.61h1.39V13.53H72a.6.6,0,0,1-.61-.6.61.61,0,0,1,.61-.6h3.4v-1.4a.6.6,0,0,1,.6-.6h2a.6.6,0,0,1,.6.6Z"/><path class="cls-1" d="M83.32,13.53a.6.6,0,0,1-.6-.6.6.6,0,0,1,.6-.6h1.39v-1.4a.6.6,0,0,1,.6-.6h2a.6.6,0,0,1,.6.6v1.4H95.3a.59.59,0,0,1,.6.6.6.6,0,0,1-.6.6H87.91v17.4a.6.6,0,0,1-.6.6h-2a.6.6,0,0,1-.6-.6V13.53Zm12.58,3.4a.59.59,0,0,1-.6.6.61.61,0,0,1-.6-.6V15.54H89.32a.62.62,0,0,1-.6-.6.6.6,0,0,1,.6-.6h6a.6.6,0,0,1,.6.6Zm0,14a.6.6,0,0,1-.6.6h-6a.6.6,0,0,1-.6-.6v-6a.6.6,0,0,1,.6-.6.6.6,0,0,1,.6.6v5.4H95.3A.59.59,0,0,1,95.9,30.93Z"/><path class="cls-1" d="M108.93,0a.89.89,0,0,1,.9.9V31a.9.9,0,0,1-.9.91h-3A.9.9,0,0,1,105,31V.91a.89.89,0,0,1,.9-.9Z"/><path class="cls-1" d="M139.93.91V31a.92.92,0,0,1-.9.91h-3a.94.94,0,0,1-.61-.26.89.89,0,0,1-.29-.65V6.11L121.6,19.6a.94.94,0,0,1-1.27,0,.92.92,0,0,1,0-1.3L122.71,16,115.86,9.1V31a.91.91,0,1,1-1.81,0V.91a.91.91,0,0,1,.54-.83.93.93,0,0,1,1,.18L127,11.66l8.27-8.26.11-.11,3-3A.88.88,0,0,1,139.1,0a.77.77,0,0,1,.29.07A.91.91,0,0,1,139.93.91Z"/><path class="cls-1" d="M145.81,13.87a.59.59,0,0,1-.6-.6.61.61,0,0,1,.6-.6h1.39V11.28a.6.6,0,1,1,1.2,0v1.39h9.39a.62.62,0,0,1,.6.6.6.6,0,0,1-.6.6H148.4v.82h7.39a.59.59,0,0,1,.6.6v16a.6.6,0,0,1-.6.6h-8a.6.6,0,0,1-.6-.6v-2a.6.6,0,0,1,.6-.6h5.4V15.89h-5.4a.61.61,0,0,1-.6-.6V13.87Z"/><path class="cls-1" d="M167.35,16.68h.82V15.27a.59.59,0,0,1,.6-.6.61.61,0,0,1,.6.6v1.41h3.38a.6.6,0,0,1,.6.6v8a.59.59,0,0,1-.6.6h-4a.59.59,0,0,1-.6-.6.6.6,0,0,1,.6-.6h3.38V17.88h-2.78v5.4a.63.63,0,0,1-.6.6.61.61,0,0,1-.6-.6v-5.4h-.82v13.4a.6.6,0,0,1-.6.6h-2a.6.6,0,0,1-.6-.6V17.88h-1.39a.61.61,0,0,1-.6-.6.6.6,0,0,1,.6-.6h1.39V15.27a.59.59,0,0,1,.6-.6h2a.59.59,0,0,1,.6.6Z"/><path class="cls-1" d="M194.27,24.84a.62.62,0,0,1,0,.87l-4,4a.59.59,0,0,1-.43.19.65.65,0,0,1-.43-.19l-5.57-5.57-1.39,1.39v5.77a.6.6,0,0,1-.6.6h-2a.6.6,0,0,1-.6-.6v-20a.6.6,0,0,1,.6-.6h2a.6.6,0,0,1,.6.6V23.83l1-1a.58.58,0,0,1,.84,0l5.57,5.57,3.58-3.58A.64.64,0,0,1,194.27,24.84Z"/><path class="cls-1" d="M16.05,20.13a8.7,8.7,0,1,0-2.72,2.72l5.09,5.09a1,1,0,0,0,1.4,0l1.32-1.32a1,1,0,0,0,0-1.4Zm-3.4-.68a5.59,5.59,0,1,1,0-7.91A5.6,5.6,0,0,1,12.65,19.45Z"/></g></g></svg>