<svg xmlns="http://www.w3.org/2000/svg" viewBox="0 0 300.65 32"><defs><style>.cls-1{fill:#040000;}</style></defs><title>logo_contents_wireframe</title><g id="レイヤー_2" data-name="レイヤー 2"><g id="レイヤー_1-2" data-name="レイヤー 1"><path class="cls-1" d="M106.87,21.91C113.74,15,122.8,6,122.8,6a.79.79,0,0,1,1.06,0,.74.74,0,0,1,0,1.06l-17,17v2.83L127.35,6.33a.72.72,0,0,1,1,0,.77.77,0,0,1,0,1.07L106.66,29.11l-2.48,2.48a.68.68,0,0,1-.59.21.51.51,0,0,1-.2-.06.75.75,0,0,1-.44-.68V27.93l-3.66,3.66a.78.78,0,0,1-.83.15.76.76,0,0,1-.44-.68V6.48a.74.74,0,1,1,1.47,0V29.29L103,25.84V6.48a.73.73,0,0,1,.73-.74h2.45a.74.74,0,0,1,.74.74Z"/><path class="cls-1" d="M125,18.4a.48.48,0,0,1,.49-.48h1.18V15.16a.47.47,0,0,1,.48-.48h8a.47.47,0,0,1,.48.48.48.48,0,0,1-.48.49H129.3v2.27h4.3a.5.5,0,0,1,.49.48.52.52,0,0,1-.49.49h-4.3V30.83h7.52a.47.47,0,0,1,.48.48.48.48,0,0,1-.48.49h-9.73l0,0,0,0-.06,0s0,0,0,0l0,0,0,0a.11.11,0,0,1-.06-.08h0s0,0,0-.06v0a.07.07,0,0,1,0-.06.18.18,0,0,1,0-.1V18.89h-1.18A.5.5,0,0,1,125,18.4Z"/><path class="cls-1" d="M140.41,31.41V15.16a.48.48,0,0,1,.49-.48H149a.48.48,0,0,1,.45.29.81.81,0,0,1,0,.19.51.51,0,0,1-.16.35l-2.89,2.89c.62.6,6.13,6.11,6.13,6.11a.44.44,0,0,1,.13.35.5.5,0,0,1-.13.35l-6.46,6.45a.48.48,0,0,1-.7,0,.51.51,0,0,1-.13-.35.54.54,0,0,1,.13-.35l6.13-6.1-6.13-6.13a.48.48,0,0,1-.13-.33.49.49,0,0,1,.13-.35l2.41-2.4H143V31.31a.49.49,0,0,1-.48.49H140.8a.07.07,0,0,0-.06,0,.07.07,0,0,0,0,0s0,0,0,0l0,0s0,0-.06,0,0,0,0,0l-.06-.08h0s0,0,0-.06,0,0,0,0A.07.07,0,0,0,140.41,31.41Z"/><path class="cls-1" d="M181.51,10.68a.68.68,0,0,1,.48,1.14L162.2,31.61a.65.65,0,0,1-.93,0l-2.22-2.22a.7.7,0,0,1,0-.92L175.52,12H164.6v5.94a.67.67,0,0,1-.66.66.65.65,0,0,1-.66-.66v-6.6a.65.65,0,0,1,.66-.66Z"/><path class="cls-1" d="M180.69,28.48l-1.61-1.68a.52.52,0,0,1,0-.68l11.31-11.31a.57.57,0,0,1,.35-.13.57.57,0,0,1,.33.13l1.64,1.65a.48.48,0,0,1,0,.7L188,21.85v9.46a.48.48,0,0,1-.48.49.49.49,0,0,1-.49-.49V22.82l-5.66,5.66a.46.46,0,0,1-.35.14A.57.57,0,0,1,180.69,28.48Z"/><path class="cls-1" d="M210.41,16.29a.47.47,0,0,1,.45.31.44.44,0,0,1-.12.52L205.91,22a.49.49,0,0,1-.69,0,.47.47,0,0,1-.14-.35.42.42,0,0,1,.14-.33s2.89-2.89,4-4h-6.42v14a.48.48,0,0,1-.48.49h-1.61a.49.49,0,0,1-.49-.49v-14h-2.75a.48.48,0,0,1-.48-.49.47.47,0,0,1,.48-.48h2.75V15.16a.48.48,0,0,1,.49-.48h1.61a.47.47,0,0,1,.48.48v1.13Z"/><path class="cls-1" d="M213.06,22.1a.48.48,0,0,1-.49-.48.49.49,0,0,1,.49-.49H226a.48.48,0,0,1,.48.49.47.47,0,0,1-.48.48Z"/><path class="cls-1" d="M243.67,16.31a.47.47,0,0,1,.45.31.46.46,0,0,1-.1.52L229.25,31.86a.48.48,0,0,1-.68,0l-1.63-1.63a.51.51,0,0,1-.13-.35.44.44,0,0,1,.13-.33l12.31-12.29h-6.9a.48.48,0,0,1-.48-.49.47.47,0,0,1,.48-.48h9.7v0Z"/><path class="cls-1" d="M252.5,15.16V28.52l8.86-8.86a.48.48,0,0,1,.68,0,.48.48,0,0,1,0,.7l-11.3,11.3a.46.46,0,0,1-.52.1.49.49,0,0,1-.3-.45V15.16a.48.48,0,0,1,.49-.48H252A.47.47,0,0,1,252.5,15.16Z"/><path class="cls-1" d="M267.57,22.1a.48.48,0,0,1-.49-.48.48.48,0,0,1,.49-.49H280.5a.48.48,0,0,1,.48.49.47.47,0,0,1-.48.48Z"/><path class="cls-1" d="M284,27a.48.48,0,0,1-.44-.29.51.51,0,0,1,.09-.54l8.09-8.07a.48.48,0,0,1,.68,0,.51.51,0,0,1,.15.35.5.5,0,0,1-.15.33s-5.92,5.91-7.25,7.25h10.58l-4-4a.46.46,0,0,1,0-.68l1.61-1.63a.5.5,0,0,1,.7,0l6.45,6.46a.49.49,0,0,1,.1.54.5.5,0,0,1-.45.29Z"/><path class="cls-1" d="M3.9,0a.89.89,0,0,1,.9.9V31a.9.9,0,0,1-.9.91H.9A.9.9,0,0,1,0,31V.91A.89.89,0,0,1,.9,0Z"/><path class="cls-1" d="M34.9.91V31a.92.92,0,0,1-.9.91H31a.94.94,0,0,1-.61-.26.89.89,0,0,1-.29-.65V6.11L16.57,19.6a.94.94,0,0,1-1.27,0,.92.92,0,0,1,0-1.3L17.68,16,10.83,9.1V31A.91.91,0,1,1,9,31V.91A.91.91,0,0,1,9.56.08a.93.93,0,0,1,1,.18l11.37,11.4L30.21,3.4a1.14,1.14,0,0,1,.11-.11l3-3A.88.88,0,0,1,34.07,0a.77.77,0,0,1,.29.07A.91.91,0,0,1,34.9.91Z"/><path class="cls-1" d="M40.78,13.87a.59.59,0,0,1-.6-.6.61.61,0,0,1,.6-.6h1.39V11.28a.6.6,0,1,1,1.2,0v1.39h9.39a.62.62,0,0,1,.6.6.6.6,0,0,1-.6.6H43.37v.82h7.39a.59.59,0,0,1,.6.6v16a.6.6,0,0,1-.6.6h-8a.6.6,0,0,1-.6-.6v-2a.6.6,0,0,1,.6-.6h5.4V15.89h-5.4a.61.61,0,0,1-.6-.6V13.87Z"/><path class="cls-1" d="M62.32,16.68h.82V15.27a.59.59,0,0,1,.6-.6.61.61,0,0,1,.6.6v1.41h3.38a.6.6,0,0,1,.6.6v8a.59.59,0,0,1-.6.6h-4a.59.59,0,0,1-.6-.6.6.6,0,0,1,.6-.6h3.38V17.88H64.34v5.4a.63.63,0,0,1-.6.6.61.61,0,0,1-.6-.6v-5.4h-.82v13.4a.6.6,0,0,1-.6.6h-2a.6.6,0,0,1-.6-.6V17.88H57.74a.61.61,0,0,1-.6-.6.6.6,0,0,1,.6-.6h1.39V15.27a.59.59,0,0,1,.6-.6h2a.59.59,0,0,1,.6.6Z"/><path class="cls-1" d="M89.24,24.84a.62.62,0,0,1,0,.87l-4,4a.59.59,0,0,1-.43.19.65.65,0,0,1-.43-.19l-5.57-5.57-1.39,1.39v5.77a.6.6,0,0,1-.6.6h-2a.6.6,0,0,1-.6-.6v-20a.6.6,0,0,1,.6-.6h2a.6.6,0,0,1,.6.6V23.83l1-1a.58.58,0,0,1,.84,0l5.57,5.57,3.58-3.58A.64.64,0,0,1,89.24,24.84Z"/></g></g></svg>