<svg xmlns="http://www.w3.org/2000/svg" viewBox="0 0 296.13 114.72"><defs><style>.cls-1{isolation:isolate;}.cls-2{fill:#fff;}.cls-3{mix-blend-mode:overlay;}</style></defs><title>logo_loading_w</title><g class="cls-1"><g id="レイヤー_2" data-name="レイヤー 2"><g id="レイヤー_1-2" data-name="レイヤー 1"><path class="cls-2" d="M56.58,110.15v-20a.62.62,0,0,1,.36-.56.63.63,0,0,1,.67.13l9,9V90.16a.59.59,0,0,1,.6-.6h2a.6.6,0,0,1,.6.6v20a.61.61,0,0,1-.36.55h0s-.07,0-.09,0h-.12l-2,0a.61.61,0,0,1-.44-.19.5.5,0,0,1-.16-.4v-9.77L57.78,91.6v18.55a.6.6,0,0,1-.6.6A.59.59,0,0,1,56.58,110.15Z"/><path class="cls-2" d="M90.35,100.17v.09s0,0,0,0v.07s0,0,0,.05,0,0,0,0a.14.14,0,0,1,0,.09h0l-10,10s-.07,0-.09,0l0,0h0s0,0,0,0a.8.8,0,0,1-.26,0,.66.66,0,0,1-.43-.17l-2-2-4-4a.57.57,0,0,1-.17-.43.62.62,0,0,1,.17-.43l10-10a.58.58,0,0,1,.84,0l4,4,2,2a.43.43,0,0,1,.07.1.12.12,0,0,1,0,0s0,0,0,.05a.08.08,0,0,0,0,.07v.17Zm-12.58,7.12,9.14-9.14c-1.29-1.27-2.76-2.74-3.14-3.14l-9.17,9.14C75,104.56,76.47,106,77.77,107.29Z"/><path class="cls-2" d="M114.75,93.73a.56.56,0,0,1,0,.84l-14,14-2,2a.61.61,0,0,1-.65.15.6.6,0,0,1-.36-.55v-2.57l-3,3a.61.61,0,0,1-.67.12.59.59,0,0,1-.36-.55v-16a.59.59,0,0,1,.6-.6.6.6,0,0,1,.6.6v14.54c.91-.94,2.3-2.33,2.81-2.81V94.17a.59.59,0,0,1,.6-.6h2a.56.56,0,0,1,.43.16.69.69,0,0,1,.17.44v12.52l13-13A.6.6,0,0,1,114.75,93.73Z"/><path class="cls-2" d="M131.05,110.58a.59.59,0,0,1-.17-.4v-20a.6.6,0,0,1,.6-.6h2a.59.59,0,0,1,.6.6v19.39h9.41a.6.6,0,0,1,0,1.2h-10l-2,0A.59.59,0,0,1,131.05,110.58Z"/><path class="cls-2" d="M164.65,100.17v.09s0,0,0,0v.07s0,0,0,.05,0,0,0,0a.18.18,0,0,1,0,.09h0l-10,10s-.07,0-.1,0l0,0h0s0,0,0,0a.86.86,0,0,1-.27,0,.66.66,0,0,1-.43-.17l-2-2-4-4a.57.57,0,0,1-.17-.43.62.62,0,0,1,.17-.43l10-10a.58.58,0,0,1,.84,0l4,4,2,2a.26.26,0,0,1,.07.1.12.12,0,0,1,0,0s0,0,0,.05a.11.11,0,0,0,0,.07v.17Zm-12.58,7.12,9.15-9.14c-1.3-1.27-2.76-2.74-3.15-3.14l-9.16,9.14C149.31,104.56,150.78,106,152.07,107.29Z"/><path class="cls-2" d="M178,95.92V94.77h-5.4a.61.61,0,0,1-.6-.6.59.59,0,0,1,.6-.6h8a.59.59,0,0,1,.6.6v16a.78.78,0,0,1-.09.34s0,0,0,0a.13.13,0,0,0,0,.07.07.07,0,0,0,0,0l-.05,0-.07,0,0,0s-.07,0-.09,0,0,0,0,0h-.16l-2,0-.12,0h-5.88a.66.66,0,0,1-.43-.17l-4-4a.62.62,0,0,1,0-.84Zm-5.16,13.63H178v-12c-2,2-7.92,7.89-8.57,8.54Z"/><path class="cls-2" d="M184.78,104.58a.67.67,0,0,1,0-.86l9.84-9.82V90.16a.6.6,0,0,1,.61-.6h2a.6.6,0,0,1,.6.6v20a.66.66,0,0,1-.17.43h0l-.08.07h0a.1.1,0,0,1-.07,0s0,0-.05,0a.1.1,0,0,0-.07,0h-.12l-2,0-.12,0h-3.89a.66.66,0,0,1-.43-.17Zm1.28-.43,5.4,5.4h3.16V95.61C192.63,97.57,186.71,103.5,186.06,104.15Z"/><path class="cls-2" d="M204.39,92.15a.59.59,0,0,1-.6.6h-2a.59.59,0,0,1-.6-.6v-2a.59.59,0,0,1,.6-.6h2a.59.59,0,0,1,.6.6Zm0,2v16a.59.59,0,0,1-.6.6h-2a.59.59,0,0,1-.6-.6v-16a.59.59,0,0,1,.6-.6h2A.59.59,0,0,1,204.39,94.17Z"/><path class="cls-2" d="M207.94,110.58a.62.62,0,0,1-.16-.4v-16a.59.59,0,0,1,.6-.6h2a.6.6,0,0,1,.6.6V98.7l5-5a.7.7,0,0,1,.43-.17.66.66,0,0,1,.43.17l4,4a.63.63,0,0,1,.17.41v12a.6.6,0,0,1-.6.6.59.59,0,0,1-.6-.6V98.41c-.29-.28-2.76-2.78-3.41-3.45-.48.5-3.41,3.43-5.4,5.42v9.77a.6.6,0,0,1-.6.6l-2,0A.61.61,0,0,1,207.94,110.58Z"/><path class="cls-2" d="M239,96.76h-2.54l1,1a.63.63,0,0,1,.17.41.66.66,0,0,1-.17.43l-3.57,3.58,5.56,5.57s.05.07.08.09v0a.1.1,0,0,1,0,.07s0,0,0,0a.1.1,0,0,0,0,.07v.24s0,0,0,0,0,0,0,0,0,0,0,.08a.07.07,0,0,0,0,0s0,0-.05.05l0,0v0h0l-6,6a.58.58,0,0,1-.84,0l-8-8a.62.62,0,0,1,0-.84l2-2a.59.59,0,0,1,1,.43.57.57,0,0,1-.17.43s-1,1.06-1.58,1.56l7.15,7.13c.41-.38,1.87-1.82,3.15-3.12l-9.56-9.58a.53.53,0,0,1-.19-.4.61.61,0,0,1,.19-.44l2-2,4-4a.58.58,0,0,1,.84,0l1.83,1.83H239a.59.59,0,0,1,.6.6A.6.6,0,0,1,239,96.76Zm-2.85,1.39c-.51-.53-2.62-2.62-3.15-3.14l-3.14,3.14c.14.17.41.41.69.72l2.45,2.42C233.55,100.72,235.52,98.75,236.1,98.15Z"/><g class="cls-3"><polygon class="cls-2" points="44.6 32.26 44.6 24.04 44.56 24 42.4 18.89 42.49 18.97 42.34 18.77 42.34 18.77 42.34 18.77 39.68 15.18 35.29 12.13 35.2 12.03 35.19 12.03 35.11 12.01 35.1 12 35.1 12.01 27.56 10.4 27.56 10.39 27.55 10.39 27.48 10.38 27.48 10.39 22.21 9.77 22.2 9.77 16.87 10.39 16.88 10.38 16.81 10.39 16.8 10.39 16.8 10.4 9.67 11.94 9.68 11.94 9.66 11.94 9.59 11.96 9.58 11.96 9.48 12.07 5.05 15.18 2.38 18.77 2.37 18.77 2.37 18.77 2.23 18.97 2.32 18.89 0.03 24.19 0.02 24.2 0.02 24.21 0 24.26 0.02 24.24 0.02 32.05 0 32.04 0.02 32.09 0.02 32.11 0.04 32.12 2.32 37.34 2.23 37.27 2.37 37.46 2.37 37.47 2.38 37.47 5.04 41.05 9.45 44.14 9.45 44.14 9.46 44.15 9.68 44.3 9.56 44.17 12.03 44.73 9.76 46.62 9.76 46.61 9.74 46.64 9.71 46.64 9.71 46.66 9.64 46.72 9.67 46.71 5.82 51.16 5.81 51.16 5.8 51.06 5.76 51.18 5.74 51.18 5.74 51.23 4.36 54.97 4.33 54.98 4.35 55 4.33 55.05 4.38 55.03 6.18 56.87 6.18 56.9 6.21 56.89 6.25 56.94 6.25 56.87 9.07 55.61 9.04 55.68 9.13 55.59 9.14 55.59 9.15 55.58 9.21 55.55 9.18 55.54 10.47 54.29 10.31 60.65 10.88 68.06 10.87 68.06 10.88 68.07 10.88 68.15 10.9 68.13 12.82 73.2 12.88 73.23 15.06 73.23 15.12 73.2 16.61 68.66 28.03 68.66 29.2 72.56 29.38 73.2 29.39 73.2 29.44 73.23 31.93 73.23 31.99 73.2 33.71 68.07 33.72 68.08 33.73 68.01 33.73 68 33.73 67.99 34.3 60.79 34.14 55.02 34.14 55.02 34.14 54.99 34.13 54.96 34.13 54.96 33.98 54.05 35.39 55.31 35.37 55.32 35.42 55.35 35.43 55.37 35.45 55.36 35.46 55.37 35.54 55.44 35.53 55.4 38.33 56.87 38.32 56.94 38.37 56.89 38.39 56.9 38.39 56.87 40.2 55.03 40.24 55.05 40.23 55 40.25 54.98 40.22 54.97 38.84 51.25 38.9 51.27 38.84 51.2 38.84 51.18 38.82 51.18 38.81 51.17 38.77 51.06 38.77 51.12 34.96 46.71 34.98 46.72 34.91 46.66 34.92 46.64 34.89 46.64 34.87 46.61 34.86 46.62 32.63 44.69 35.21 44.1 35.1 44.23 35.32 44.08 35.32 44.08 35.32 44.08 39.67 41.06 42.34 37.47 42.34 37.47 42.35 37.46 42.49 37.27 42.4 37.34 44.6 32.35 44.6 32.34 44.6 32.33 44.65 32.23 44.6 32.26"/></g><path class="cls-2" d="M293.72,33.87a4.16,4.16,0,0,0,1.64-3.22,7.05,7.05,0,0,0-.82-3.83,0,0,0,0,0,0-.05,7.81,7.81,0,0,0-.53-.83,1.47,1.47,0,0,0,0-.59A1.66,1.66,0,0,0,292.08,24h0a5.28,5.28,0,0,0-3-1.23,11.26,11.26,0,0,1,.4-4.69,5.08,5.08,0,0,0-.38-4.33A2.67,2.67,0,0,0,287,12.64c-1.5-.05-2.59.89-4,2.09l-.7.6a3.31,3.31,0,0,0-.58-1.38,2.12,2.12,0,0,0-1.55-.82,2.33,2.33,0,0,0-1.85.55c-.57-.24-1.15-.46-1.75-.65,0-.23-.1-.47-.17-.72a3.67,3.67,0,0,0-2.66-2.87,3.05,3.05,0,0,0-3.16,1.29,5.64,5.64,0,0,0-.68,1.11c-.36,0-.73,0-1.09,0a27.23,27.23,0,0,0-3,.17,2.34,2.34,0,0,0-1.63-.67h0a2.33,2.33,0,0,0-1.34.4,2.92,2.92,0,0,0-2.76-.42,3.15,3.15,0,0,0-1.94,2.94c-.35.17-.69.35-1,.54a3.12,3.12,0,0,0-1.36.64,2.76,2.76,0,0,0-.53.55l-.7.51c-1.33-1.1-2.5-1.45-3.47-1-1.66.71-1.81,2.6-1.6,4.19A8,8,0,0,0,247.24,23a13.08,13.08,0,0,1-2.91,4,.44.44,0,0,0,0,.62l.09.07h0a9.81,9.81,0,0,0,2.82,1.14,15.71,15.71,0,0,0-.12,1.95,15.37,15.37,0,0,0,2,7.64h0a15.17,15.17,0,0,0,1.15,1.76l-1.89,1.69v-.4c-.35-.72-.54-1.07-.94-1.75-.37.12-.77.27-1.16.43A8.33,8.33,0,0,0,242.88,42a1.81,1.81,0,0,0-.59,1.28s0,2.33,0,2.55V49c0,2.61,0,5.23,0,7.84,0,0,.08.6.08.78,0,.91.93,1.71,1.94,2.38v-.1l.06.05V55.24a18,18,0,0,1,4-1.5v0l.06,0V43.19l.26.28.06,0h0l1.82-1.63,0,5.77-.43-.09,0,.05h0l-1.24,1.13c0,4.34.1,8.68.1,13a65.9,65.9,0,0,0,7.87,1.42l0,.31c.53,4.43,1.75,7.82,3.67,7.82a1.77,1.77,0,0,0,1.14-.45,6.51,6.51,0,0,0,1.84-3.7v0A13.45,13.45,0,0,0,274,67h0a1,1,0,0,1,.05.16c.54,2.41,1.6,4,2.91,4a1.76,1.76,0,0,0,1.14-.44c1.3-1,2.16-3.89,2.59-7.43a.88.88,0,0,1,0-.16,71.66,71.66,0,0,0,8.82-1.53v0h.06c0-4.83.1-9.66.1-14.48l-1.73.39,0-6.78c-.14-.28-.28-.56-.41-.85.25-.36.48-.73.7-1.1a.3.3,0,0,0-.08.08,15.56,15.56,0,0,0,1.52-3.65l.17,0h.1a2.65,2.65,0,0,0,1-.15A6.56,6.56,0,0,0,293.72,33.87Z"/><path class="cls-2" d="M296.13,56.05v-9c0,.06-.07.12-.1.19,0-2,0-3.6,0-3.86a1.53,1.53,0,0,0-.15-.62c-.63-1.77-4.41-3.1-5.71-3.53v.07l-.06,0V53.76l.15,0v.12A30.8,30.8,0,0,1,293.4,55c.25.13.5.27.74.42v4.51l.14-.09v.25c1-.63,1.82-1.14,1.75-2.73a1.29,1.29,0,0,0,0-.8v-.11A1.64,1.64,0,0,0,296.13,56.05Z"/><path class="cls-2" d="M63.46,21.56a.34.34,0,0,0,.35-.23A16.45,16.45,0,0,1,68.6,14.4c.22-.2.45-.39.68-.58l.48-.37a22.25,22.25,0,0,1,2-1.38l.35-.2a24.74,24.74,0,0,1,9.12-3l.48-.05.83-.07q.89-.06,1.77-.06l1.35,0,.81.05a26.12,26.12,0,0,1,4.39.73l.53.14c.39.11.77.23,1.15.36l.31.1a22.82,22.82,0,0,1,3.34,1.47l.31.17.73.43c.33.2.65.41,1,.63l.57.41.48.36.42.35.31.27.27.23.41.39.27.27.51.53.24.28a15.55,15.55,0,0,1,1.13,1.44c.13.2.27.4.4.61s.25.41.37.62c.23.42.45.85.65,1.29.09.22.19.44.27.66s.09.23.13.34a.53.53,0,0,0,.08.15.52.52,0,0,0,.11.1.33.33,0,0,0,.17,0,.3.3,0,0,0,.22-.45,18.67,18.67,0,0,0-5.16-7.59l-.06-.05-.51-.44-.11-.09L99,12.25c-.48-.38-1-.73-1.49-1.07a20.2,20.2,0,0,0-1.76-1c-.36-.19-.74-.38-1.12-.55l-.76-.33L93.11,9a25,25,0,0,0-2.46-.75L89.87,8l-.59-.12-.72-.13a26.06,26.06,0,0,0-4.19-.32h0a25.33,25.33,0,0,0-5.92.69l-.43.1c-.43.11-.85.24-1.27.37s-.83.27-1.23.43A20.7,20.7,0,0,0,63.89,19.48c-.24.53-.46,1.06-.65,1.61a.38.38,0,0,0,0,.1A.29.29,0,0,0,63.46,21.56Z"/><path class="cls-2" d="M110.9,26.53a1.14,1.14,0,0,0-.75-.7c-.43-.13-1.09-.32-1.9-.53a9.2,9.2,0,0,0-.34-.91,1.16,1.16,0,0,0-.75-.67l-3-.87,0,0-.08,0c-3.19-6.32-10.17-10.73-18.75-11h-.94c-8.94,0-16.38,4.58-19.74,11l-3,.89a1.15,1.15,0,0,0-.75.66,7.28,7.28,0,0,0-.32.87c-.9.23-1.64.44-2.1.58a1.18,1.18,0,0,0-.76.7A11.6,11.6,0,0,0,57,30.7a14.62,14.62,0,0,0,.61,4.18,1.17,1.17,0,0,0,.82.79c.57.15,1.37.34,2.1.5.1.34.19.62.27.83a1.16,1.16,0,0,0,.79.72l3.13.83s0,0,0,0l.14,0a18.63,18.63,0,0,0,10.38,8,5.16,5.16,0,0,0-.79.46h0l-.21.17h0l-.09.09h0l-.09.1h0a.27.27,0,0,0-.07.08l0,0-.11.19v0a.59.59,0,0,0,0,.08v0l0,.09v0s0,0,0,.08v0a.31.31,0,0,0,0,.1h0v.36l0,0v0l0,0,0,0,0,0h0l.07.11h0l0,.05,0,0L74,49l0,0,0,0,0,0s0,0,.05,0l0,0,0,0h0l.06,0a.42.42,0,0,0-.09.14h0s0,0,0,.06v0s0,.05,0,.08a.13.13,0,0,1,0,.06h0l0,0,0,0-.13.07h0l0,0h0l-.33.2,0,0a3.55,3.55,0,0,0-.31.23h0l-.12.11h0l-.12.13h0l-.1.12,0,0-.19.24v0a.41.41,0,0,0-.07.11h0l-.06.13v0l0,.11v0a.93.93,0,0,0,0,.13v0s0,.07,0,.11v0a.57.57,0,0,0,0,.13h0a.57.57,0,0,0,0,.13v0s0,.09,0,.13h0s0,.09,0,.13v0a.61.61,0,0,0,0,.12h0l.06.13,0,0a.75.75,0,0,0,.07.12h0a.6.6,0,0,0,.09.13v0l.1.12h0L73,53h0l.14.12h0l.16.13h0l.17.13h0a5.1,5.1,0,0,0,.81.48h0l-.1,0h0l0,0h0l-.13.06,0,0-.13.06h0l-.52.28,0,0-.11.06,0,0L73,54.5l0,0-.1.06h0l-.29.22h0l-.07.06,0,0-.06.06,0,0-.06.06,0,0a.12.12,0,0,1,0,0l0,0-.09.1s0,0,0,0l0,0a.1.1,0,0,0,0,.05l0,0,0,0,0,.05,0,0,0,0,0,.06,0,0,0,.07v0a.36.36,0,0,0,0,.09v0l0,.06v0s0,0,0,.06v0s0,0,0,.07v0a.15.15,0,0,1,0,.07v.14h0a.76.76,0,0,0,0,.15v0a.8.8,0,0,0,0,.15v0a.74.74,0,0,0,0,.14v0a.53.53,0,0,0,.06.14v0l.06.13,0,0a.55.55,0,0,0,.09.14l0,0,.1.14h0a.53.53,0,0,0,.12.14l0,0,.14.14h0l.14.13,0,0,.16.13,0,0,.16.12,0,0,.19.13,0,0,.19.12h0l.22.12,0,0,.23.12-.06,0h0l-.15.08,0,0-.24.14h0l-.15.1h0l-.35.26,0,0-.16.14h0l-.14.13,0,0-.13.14h0l-.11.14,0,0-.1.14h0l-.08.13v0l-.07.14h0a.69.69,0,0,0,0,.13l0,0,0,.14h0l0,.14v0c0,.05,0,.1,0,.15h0s0,.06,0,.1v0s0,.05,0,.07v0s0,0,0,.06v0s0,0,0,.06v0a.64.64,0,0,0,0,.07v0l0,.08v0l0,.1,0,0,0,0,0,0,0,.05,0,0,0,0,0,.05,0,0,0,0,0,0,.19.21,0,0,.07.06,0,0,.07.06,0,0,.07.06,0,0,.08.07h0a3.94,3.94,0,0,0,.45.31h0l.12.07h0l.12.07h0l.87.42h0l-.14.1h0l-.12.09h0l-.27.23h0l-.1.1h0l-.07.08h0v0h0a1.63,1.63,0,0,0-.17.22h0l-.06.1,0,0a.41.41,0,0,1,0,.09v0a.42.42,0,0,0,0,.1h0a.56.56,0,0,0,0,.12h0l0,.1v0s0,0,0,.08v0s0,0,0,.07v0s0,.07,0,.11,0,.09,0,.13v0s0,.08,0,.12h0a.74.74,0,0,0,0,.14v0s0,.09,0,.13h0l.06.13v0a2.26,2.26,0,0,0,.16.26h0a1.47,1.47,0,0,0,.1.13h0V67l0,0v0l0,0v0l0,.06v0l0,.06v0l0,.08v0a.61.61,0,0,0,0,.12h0l.05.12,0,0,0,.09,0,0,0,.09,0,.06,0,.09,0,.06,0,.1,0,.06,0,.1,0,.06,0,.1,0,.07.06.11,0,.06.06.12,0,.06a.83.83,0,0,1,.07.13l0,0,.1.18h0a1.62,1.62,0,0,0,.1.18l0,0s.05.09.07.13l0,.07a.75.75,0,0,0,.07.12l0,.07.06.11.06.08.07.11,0,.08.07.11.06.08.07.1.06.08a.76.76,0,0,0,.08.11l0,.07L76,71l0,.07.1.12,0,.06.15.17H76a1.39,1.39,0,0,0-1.43,1.32s0,1.33,1.64,1.33h.45l.06,0h0l.07,0a1.71,1.71,0,0,0,.92-1l0-.08a2.9,2.9,0,0,0,.11-.38c0-.06,0-.14,0-.21a.51.51,0,0,0,0-.13L78,72v0a7.63,7.63,0,0,0,0-1v-.77a7,7,0,0,1,.08-.76h0a.5.5,0,0,1,0-.12h0a.51.51,0,0,1,0-.13h0l0-.13h0l.65.14h0l.68.12h0l.7.1h0l.72.08h0l.34,0h0l.37,0h0l.33,0h.07l.37,0h3.27l.91,0h.06l.42,0h.06l.42,0h0l.44,0h0l.08,0h0l.09,0h0l.08,0h.28l0,0h0l0,0h0l.06,0h0a.48.48,0,0,0,.16-.12h0l.8-.14h0l.36-.08h0l.35-.08v0a.29.29,0,0,0,0,.09v0s0,.07,0,.1v.05s0,.08,0,.11v0s0,.08,0,.12v.05a.5.5,0,0,0,0,.12v.05s0,.09,0,.13v0s0,.08,0,.13v.05a.49.49,0,0,1,0,.12v1.06h0v.11c-.1,2.72,1.63,2.64,1.63,2.64a1.74,1.74,0,0,0,1.29-.42l.1-.1a1.1,1.1,0,0,0,.25-.63,1.09,1.09,0,0,0-.23-.75.39.39,0,0,0-.08-.1L93.68,72l-.17-.11-.05,0a2.16,2.16,0,0,0-.77-.23,12.24,12.24,0,0,0,1-1.5l.12-.21.21-.41.18-.39c.09-.19.17-.38.24-.55a11.67,11.67,0,0,0,.55-1.7h0l0,0a2.22,2.22,0,0,0,.19-.27h0l.08-.13h0a.38.38,0,0,0,.06-.13h0l0-.12v0l0-.13h0a.69.69,0,0,0,0-.13v0a.53.53,0,0,0,0-.13v-.15a.25.25,0,0,0,0-.08v0a.19.19,0,0,1,0-.07v0l0-.11h0l0-.11v0l0-.08,0,0a.59.59,0,0,1,0-.08l0,0-.07-.1h0L95,64.7l0,0-.06-.07,0,0,0,0h0l0-.05,0,0,0,0,0,0,0,0h0l-.11-.1h0l0,0-.09-.07,0,0c.06-.14.1-.28.15-.41l.17-.08h0l.27-.15h0l.26-.16a1.06,1.06,0,0,0,.63-.42,15.27,15.27,0,0,1-.73,1.75.08.08,0,0,0,0,.11h0a.08.08,0,0,0,.07,0,14.82,14.82,0,0,0,.86-2.1h0l.07-.08h0l.07-.07h0a1.72,1.72,0,0,0,.23-.32l0,0,0-.06,0,0,0-.06,0,0a.14.14,0,0,1,0-.06l0,0,0-.09s0,0,0-.06v0s0,0,0-.06v0a.13.13,0,0,0,0-.06v0a.2.2,0,0,1,0-.07v-.13h0a.66.66,0,0,0,0-.14v0a.36.36,0,0,0,0-.11v0l0-.14v0s0-.08,0-.11l0,0a1.58,1.58,0,0,0-.13-.26v0l-.08-.11v0l-.1-.13h0l-.11-.12v0l-.27-.26h0l-.16-.12h0l-.28-.2h0l-.07,0h0l-.09-.06,0,0-.16-.1,0,0L95,59h0a1.21,1.21,0,0,0,0-.19h0a6.89,6.89,0,0,0,.87-.53h0l.18-.14h0l.16-.14h0l.14-.14h0a.86.86,0,0,0,.13-.14h0l.11-.14v0a.71.71,0,0,0,.1-.14h0l.08-.13v0l.07-.14h0A1.12,1.12,0,0,0,97,57v0a.57.57,0,0,0,0-.14h0a.59.59,0,0,0,0-.13v0c0-.05,0-.09,0-.14h0s0-.07,0-.1v0s0,0,0-.07v0s0,0,0-.06v0s0,0,0-.06v0s0,0,0-.06v0a.3.3,0,0,0,0-.08v0l0-.07,0,0,0-.05,0,0,0,0,0-.05,0,0,0-.05,0,0,0,0,0,0-.12-.12v0l-.06-.06,0,0L96.26,55l0,0-.06-.06,0,0-.08-.06,0,0a3.65,3.65,0,0,0-.43-.31h0a.41.41,0,0,1-.11-.07h0a.41.41,0,0,1-.11-.07h0a8.06,8.06,0,0,0-.93-.47h0l-.08,0h0l.43-.24h0l.37-.24h0l.31-.24h0a1.59,1.59,0,0,0,.13-.13h0a.8.8,0,0,0,.13-.13h0l.1-.12h0l.09-.13h0l.07-.12v0l.06-.13h0a.56.56,0,0,0,0-.12v0a.5.5,0,0,0,0-.13h0s0-.08,0-.12v0a.57.57,0,0,0,0-.13h0a.61.61,0,0,0,0-.14v0l0-.14v0a.65.65,0,0,0,0-.13v0a.78.78,0,0,0-.05-.14v0L96,50.93h0l-.09-.14v0l-.11-.13h0l-.12-.13h0a1.85,1.85,0,0,0-.14-.14h0l-.33-.27h0a3.77,3.77,0,0,0-.39-.26h0l-.06,0h0l-.18-.1,0,0-.17-.09h0l-.21-.1h0l0,0h0l.1-.07h0l.09-.07h0l.08-.06h0l.07-.06,0,0,.06-.06h0l.05-.06,0,0,0,0v0a.1.1,0,0,0,0,0l0,0,0-.06v0l0,0,0,0s0,0,0-.05v0a.08.08,0,0,0,0-.05l0,0a.43.43,0,0,1,0-.05v0s0,0,0-.06v-.3a.15.15,0,0,0,0-.07v0l0-.08h0a.36.36,0,0,0,0-.09v0l0-.07v0l-.05-.07v0l-.06-.09h0a.46.46,0,0,0-.07-.07l0,0-.06-.07h0l-.2-.18h0l-.06,0h0l0,0,0,0L94.05,47h0l-.17-.1h0l-.11-.07h0l-.12-.07A17.4,17.4,0,0,0,104,38.49l.1,0,0,0,3.12-.84a1.18,1.18,0,0,0,.79-.72c.08-.22.18-.52.28-.88.68-.15,1.38-.32,1.9-.46a1.13,1.13,0,0,0,.81-.79,14.69,14.69,0,0,0,.61-4.18A11.68,11.68,0,0,0,110.9,26.53ZM94.24,64h0l0,0h0a1,1,0,0,0,.14-.15C94.29,63.91,94.26,64,94.24,64ZM64.79,38.54h0Z"/><path class="cls-2" d="M166.39,39.22h0a.75.75,0,0,1,.07-.12,14.69,14.69,0,0,0,.74-1.42v0a14.66,14.66,0,0,0,.58-1.48l0,0c.05-.15.09-.3.14-.45l0-.07c.05-.16.09-.31.13-.47v0c.09-.33.16-.66.23-1a.5.5,0,0,0,0-.12c0-.13,0-.26.07-.39a.5.5,0,0,0,0-.12c0-.15.05-.31.07-.46v0c0-.17,0-.34.06-.51s0-.08,0-.12l0-.38a1,1,0,0,0,0-.17c0-.12,0-.24,0-.36v-.16c0-.17,0-.34,0-.51h0c0-10.47-9.2-18.81-21.42-18.81a25.49,25.49,0,0,0-5.38.57l-.23.06a23.49,23.49,0,0,0-4.6,1.56c-.63.29-1.23.61-1.81.94l-.36.21c-.32.2-.64.4-1,.61l-.25.18c-.2.13-.39.27-.58.42l-.19.14a20.46,20.46,0,0,0-2.09,1.85h0a17.46,17.46,0,0,0-5.18,12.27v.48s0,.1,0,.15,0,.22,0,.33a.91.91,0,0,0,0,.17,3,3,0,0,0,0,.31c0,.06,0,.12,0,.17l0,.32a.77.77,0,0,1,0,.15c0,.12,0,.24,0,.35a.5.5,0,0,1,0,.12c.08.47.18,1,.3,1.41l0,.06c0,.13.07.27.11.4l0,.07c0,.14.08.27.13.4l0,.06.15.43h0a15.32,15.32,0,0,0,2.23,4h0c.1.13.19.25.29.36h0l.29.35h0c.27.31.55.61.84.91l0,0,.65.62.05,0,.22.19,0,0,.45.37,0,0,.22.18.08.06.33.25h0l.35.24h0l.1.07a1.64,1.64,0,0,0,.22.14l.09.07.39.25.13.08.21.13.14.08.33.19.18.11.21.11.17.09h0l.2.1.21.11.29.14.22.1h0l.19.09.22.1.18.08.36.15h0l.18.07.24.1h0l.17.07.35.12h0l-.07,0-.14.06-.09.05-.12,0-.1.05-.12.06-.09.05-.12.06-.1.06-.12.07-.09,0-.14.08-.08,0-.21.13,0,0-.18.12-.07,0a.71.71,0,0,0-.14.1l-.09.06-.13.09-.08.07-.13.1-.09.06-.13.11-.08.06-.14.12-.07,0-.2.18c-2.8,2.45-4,4.77-4,6.42h0a2.42,2.42,0,0,0,0,.39c0,.09,0,.18,0,.26a2.47,2.47,0,0,0,.14.41,1.74,1.74,0,0,0,.18.33.22.22,0,0,0,.05.08l.09.11h0l.08.09,0,0,.09.07h0l.1.06h0l.11,0h0l.13,0h0l.12,0h0l.15,0h.43l.13,0h.06l.17,0,.06,0,.14,0,.07,0,.19,0,.06,0,.15,0,.08,0,.19-.08.07,0,.15-.06.09,0,.18-.08.1-.05.16-.09.09-.05.17-.1.11-.07.17-.11.1-.06.17-.12.1-.07.16-.11-.06.39a9.49,9.49,0,0,0-.32,1.56h0a1.23,1.23,0,0,1,0,.19v0c0,.06,0,.12,0,.18v0a1.09,1.09,0,0,0,0,.18v0c0,.06,0,.12,0,.18v0a1.09,1.09,0,0,0,0,.18v0a1.09,1.09,0,0,0,0,.18v0a1.34,1.34,0,0,0,0,.2v.25h0c0,.24,0,.49,0,.74v.86a1,1,0,0,0,0,.17v.1a1,1,0,0,1,0,.17v.11s0,.11,0,.16v.12s0,.11,0,.16v.12s0,.11,0,.17v.12s0,.11,0,.17l0,.12c0,.06,0,.12,0,.18l0,.11a1.23,1.23,0,0,0,0,.2v.1l0,.31c.07.55.15,1.09.24,1.6,0,.2.06.39.1.58a1.16,1.16,0,0,0,0,.18c0,.13,0,.25.07.37s.05.22.07.32a1.6,1.6,0,0,1,.05.21l.09.34c0,.13.07.26.1.38s.05.19.08.28l0,.15a2.58,2.58,0,0,1,.08.26l.09.25.07.18c.1.27.21.52.32.76l.1.2.06.12.09.15q.1.18.21.33a2.48,2.48,0,0,0,.27.35l.18.2.07.07.15.13.08.06.16.1.08,0,.16.08a1.91,1.91,0,0,0,.34.1l.18,0h.34l.1,0h0l.09,0h0l.09,0h0l.1,0h0l.08,0,0,0,.1-.06h0l.1-.07,0,0,.07-.06,0,0,.1-.08v0l.08-.07,0,0,.07-.08,0,0,.09-.11,0,0,.07-.09,0,0,.17-.24,0,0,.06-.1,0,0,.08-.13v0s0-.08.07-.13l0,0,.06-.12v0a1,1,0,0,0,.07-.15l0,0,.06-.13v0c.05-.11.09-.22.14-.34v0a1.21,1.21,0,0,0,0-.14l0,0,.06-.19v0a1.42,1.42,0,0,0,.05-.16l0-.05c0-.06,0-.11,0-.16v0l.06-.19v0a.83.83,0,0,1,0-.15v-.06a1.46,1.46,0,0,1,0-.2h0v-.06l0,0,.3.13h0a13.43,13.43,0,0,0,1.55.52h0l.28.07h0l.27.06h.06l.29.06h0c.21,0,.43.08.65.1h.08l.24,0h.11l.22,0h.12l.21,0h1.58l.22,0h.12l.22,0h.11l.26,0h.06l.33,0h.05l.27-.05.1,0,.23,0,.09,0,.23,0,.09,0,.25-.06h.06l.63-.19h0l.27-.09.07,0,.23-.08.07,0,.24-.1.06,0,.28-.12h0s0,.11,0,.16h0c.05.22.11.44.16.65h0l.18.6h0c0,.13.09.25.14.38h0a1.22,1.22,0,0,0,.07.17h0l.15.34h0l.08.15h0a2.75,2.75,0,0,0,.17.29v0l.08.12h0l.09.13h0a.44.44,0,0,0,.08.11v0l.09.1h0l.09.11h0l.08.09,0,0,.19.18h0l.08.07h0l.1.07h0l.09,0,0,0,.08,0h0l.1,0h0l.09,0h0l.09,0h0l.11,0h.52a2.07,2.07,0,0,0,.33-.1l.17-.08a1.49,1.49,0,0,0,.31-.2,3,3,0,0,0,.37-.35,4.27,4.27,0,0,0,.41-.56.61.61,0,0,1,.07-.1l.12-.22.06-.12a12.28,12.28,0,0,0,.94-2.63s0-.11,0-.17c.07-.29.14-.59.2-.9a1.16,1.16,0,0,1,0-.18c.13-.69.24-1.42.33-2.18,0-.11,0-.21,0-.31V63a1.49,1.49,0,0,1,0-.21v-.11c0-.06,0-.13,0-.19v-.12c0-.06,0-.12,0-.18v-.11c0-.06,0-.12,0-.18v-.11c0-.06,0-.12,0-.18v-.11a1.09,1.09,0,0,1,0-.18v-.1c0-.07,0-.14,0-.2v-.07c0-.18,0-.36,0-.54v-.32a1.34,1.34,0,0,0,0-.2v-.8c0-.07,0-.13,0-.2v0a1.69,1.69,0,0,0,0-.23h0c0-.31,0-.61-.06-.89h0c0-.06,0-.13,0-.19v0l0-.18v0c0-.06,0-.12,0-.18h0a7.41,7.41,0,0,0-.31-1.36l.08.05.06,0,.23.14.07,0,.18.11.06,0,.22.12.07,0,.19.09,0,0,.21.09.06,0,.21.08h0l.17.06.06,0,.19.06h.05l.16,0h0l.18,0h0l.16,0h.4l.15,0h0l.14,0h0l.12,0h0l.12,0h0l.09-.06h0l.09-.07,0,0,.08-.09h0a2.43,2.43,0,0,0,.51-1.79v0a4.81,4.81,0,0,0-.23-1.1l-.16-.45c-.08-.18-.16-.36-.26-.56s-.21-.39-.33-.59-.45-.69-.73-1.06l-.4-.48-.07-.09c-.25-.29-.53-.59-.82-.89h0c-.31-.31-.65-.63-1-1l-.19-.17-.07-.05-.14-.12-.07-.05-.15-.13-.05,0-.21-.15,0,0-.16-.12-.07,0-.15-.1-.06,0-.19-.12,0,0-.21-.13-.06,0-.15-.09-.07,0-.15-.08-.06,0-.2-.12h0l-.17-.09-.07,0-.07,0,.28-.09h0l.14-.05.41-.15h0l.1,0h0l.32-.12.15-.06.32-.14.13-.06.33-.14.15-.07.26-.13.13-.06.35-.18h0l.14-.08.24-.12.14-.08h0l.33-.19.14-.09.21-.12.15-.1.3-.19.14-.09.2-.14h0l.15-.1.2-.15h0l.21-.15.18-.14h0l.15-.12.17-.13.21-.17h0l.18-.16h0l.15-.13h0l.14-.12h0l.14-.12h0l.23-.22.15-.14h0l.12-.13.14-.14.16-.17h0l.18-.2h0l.11-.12.14-.16h0l.11-.12.22-.27.1-.12.13-.17h0l.09-.12.21-.29.09-.12.12-.17h0l.08-.12.21-.32h0l.06-.11h0l.12-.18Z"/><path class="cls-2" d="M224.65,41.93l.16-.17.19-.2.11-.13.14-.15.11-.13a2.75,2.75,0,0,1,.22-.26l.09-.13a1.83,1.83,0,0,0,.13-.16l.09-.12.22-.29.08-.12.12-.18a.83.83,0,0,0,.08-.12l.21-.31.07-.11a1.18,1.18,0,0,0,.11-.19l.07-.11a15.39,15.39,0,0,0,1.37-3,16.3,16.3,0,0,0,.54-8.5,17.72,17.72,0,0,0-4.84-9.19A19.26,19.26,0,0,0,217.6,14a5.81,5.81,0,0,0,1.26-3.2,8.17,8.17,0,0,0-1.13-5.36A10.46,10.46,0,0,0,212.36.89,11.53,11.53,0,0,0,207.23,0h0l-.84.05h0l-.32,0a11.44,11.44,0,0,0-7.11,3.42,9.52,9.52,0,0,0-2.38,4.19,7.85,7.85,0,0,0-.17,3.46A5.53,5.53,0,0,0,197.68,14a20.77,20.77,0,0,0-6.12,4.12l-.13.12-.15.15a18,18,0,0,0-4.63,7.83,16,16,0,0,0-.49,6.61,2.34,2.34,0,0,1,0,.26v.06A15.46,15.46,0,0,0,188,38.36h0l.12.21a13.64,13.64,0,0,0,1.46,2.08l.19.23h0c.27.31.55.61.84.91l0,0c.21.21.43.41.65.61l.05.05.21.19,0,0,.44.37,0,0,.21.17.08.06.4.3,1.15.85-.22.53c-.2.46-.41.93-.61,1.42l-.1.22-.15.39c-.05.13-.09.26-.13.4s-.07.24-.1.37c-.08.31-.15.63-.2,1l0,.18c0,.21-.07.41-.11.62l0,.21c-.08.41-.15.81-.25,1.2a6.84,6.84,0,0,1-.9,2,.1.1,0,0,0,0,0l-1,1.11A8,8,0,0,0,189,55.36l-.22.25h0v0h0v0h0a.93.93,0,0,0-.05.1h0l0,.06h0l0,.06h0l-.11.27h0l0,.1h0c0,.11-.08.24-.12.37a10,10,0,0,0-.25,1v0h0v.08h0c0,.19-.06.39-.08.59v0a1.1,1.1,0,0,0,0,.18v0c0,.06,0,.13,0,.2h0c0,.05,0,.1,0,.15h0a.53.53,0,0,1,0,.13v.89h0a6.44,6.44,0,0,0,.07.79s0,.07,0,.1v0c0,.26.09.52.15.8h0a.83.83,0,0,0,0,.15l0,.07,0,.13a.3.3,0,0,1,0,.1.56.56,0,0,1,0,.12l0,.1,0,.12,0,.11a.56.56,0,0,1,0,.12s0,.07,0,.11l0,.12,0,.11s0,.08,0,.12l.05.12a.54.54,0,0,0,.05.11v0a9,9,0,0,0,1.61,2.69,5.34,5.34,0,0,0,1.11,1,1.14,1.14,0,0,0,.23.15l.23.14.12.06a3.94,3.94,0,0,0,1.67.43H194a7,7,0,0,0,2.54-.34h0a8.68,8.68,0,0,0,.91,2.1,2.66,2.66,0,0,0,1.46,1.28,1.45,1.45,0,0,0,.85,0c.84-.24,1.56-1.19,2.06-2.57h0l.06-.16v0l.06-.18,0,0h0s.07-.21.16-.58c4.06.85,5.58,1.08,8,.4a21.28,21.28,0,0,0,2.79-.84c.1.42.21.79.25.92V68h0a5.45,5.45,0,0,0,1.61,2.73,1.39,1.39,0,0,0,1.83.17c.9-.49,1.6-1.81,2.11-3.63a19.31,19.31,0,0,0,.83-4.61h0a6.91,6.91,0,0,0,1.12-.83l.26-.18h0l.12-.11,0,0,.11-.11v0l.1-.12v0l.1-.14,0,0a2.27,2.27,0,0,0,.17-.31v0s0-.11.08-.17h0a2.11,2.11,0,0,0,.23-1.5,1.47,1.47,0,0,0-.33-.8l-.12-.08a3.17,3.17,0,0,0,1.27-1.67v0a1.62,1.62,0,0,0,.08-.47,3.1,3.1,0,0,0-.18-1.34,2.89,2.89,0,0,0-.49-1,2.1,2.1,0,0,0,.69-.94h0a.49.49,0,0,0,0-.11,2,2,0,0,0,0-1.37.66.66,0,0,0,0-.09l0-.06a2.65,2.65,0,0,0-.23-.48,3.69,3.69,0,0,0-1.05-1.14,2.45,2.45,0,0,0-.47-.27h0a2.3,2.3,0,0,0,.25-.46v-.09h0a2.46,2.46,0,0,0,.09-.34,1.85,1.85,0,0,0,0-.87,1.38,1.38,0,0,0,0-.2l-.09-.23h0s0,0,0,0a2.15,2.15,0,0,0-.34-.57,2.26,2.26,0,0,0-.25-.29h0l0,0a1.73,1.73,0,0,0-1.3-.6l.26-.13.13-.06.34-.17.15-.08.24-.13.14-.08.32-.18.15-.09.21-.13.15-.09.3-.2.14-.09.19-.13.16-.11.19-.14h0l.21-.15.18-.14.15-.12.08-.06.08-.07h0l.18-.15.13-.11.08-.06a.52.52,0,0,1,.11-.1l.18-.16.14-.13h0l.15-.14.08-.08.09-.08a.3.3,0,0,1,.08-.08l.1-.1Z"/><path class="cls-2" d="M222.75,56.57a.1.1,0,0,0,0,0Z"/></g></g></g></svg>