<svg xmlns="http://www.w3.org/2000/svg" viewBox="0 0 447.58 88.62"><defs><style>.cls-1{fill:#231815;}.cls-2{fill:#040000;}</style></defs><title>logo_text_gratz_line</title><g id="レイヤー_2" data-name="レイヤー 2"><g id="レイヤー_1-2" data-name="レイヤー 1"><path class="cls-1" d="M46.74,5.73V5.65s0,0,0,0a0,0,0,0,1,0,0s0,0,0,0l0,0s0,0,.05,0L47,5.27,52.19.11A.46.46,0,0,1,52.47,0h4a.4.4,0,0,1,0,.8H52.64C52.48.94,50.47,3,49,4.4l7.72,7.75a.38.38,0,0,1,.11.29.46.46,0,0,1-.11.28L55.43,14h0v0l0,0h0l0,0a0,0,0,0,1,0,0H55a.06.06,0,0,1-.05,0s0,0,0,0h0L54.85,14l-8-8L46.8,6l0,0s0,0,0,0a.08.08,0,0,1,0-.06s0,0,0,0Z"/><path class="cls-1" d="M85,7.07v.07s0,0,0,0v0s0,0,0,0,0,0,0,0a.21.21,0,0,1,0,.07h0L78.18,14s-.05,0-.06,0l0,0h0s0,0,0,0a.51.51,0,0,1-.17,0,.49.49,0,0,1-.29-.11l-1.3-1.33L73.6,10a.39.39,0,0,1-.11-.29.42.42,0,0,1,.11-.29l6.68-6.65a.37.37,0,0,1,.56,0l2.67,2.67,1.33,1.33s0,0,0,.06l0,0s0,0,0,0a.07.07,0,0,0,0,0v.11Zm-8.38,4.76,6.09-6.1c-.86-.85-1.84-1.82-2.09-2.1l-6.12,6.1C74.72,10,75.7,11,76.57,11.83Z"/><path class="cls-1" d="M101.69,14a.37.37,0,0,1-.11-.27V3.07a.39.39,0,0,1,.4-.4h1.33a.4.4,0,0,1,.4.4v3L107,2.75a.52.52,0,0,1,.29-.11.49.49,0,0,1,.29.11l2.67,2.71a.41.41,0,0,1,.11.27v8a.4.4,0,0,1-.8,0V5.91c-.19-.2-1.84-1.86-2.27-2.31-.32.34-2.28,2.29-3.6,3.62v6.51a.39.39,0,0,1-.4.4l-1.33,0A.39.39,0,0,1,101.69,14Z"/><path class="cls-1" d="M136.74,4.8H135l.66.66a.41.41,0,0,1,.11.27.49.49,0,0,1-.11.29L133.31,8.4,137,12.12l0,.06v0a.07.07,0,0,1,0,.05s0,0,0,0a0,0,0,0,0,0,0v.16s0,0,0,0,0,0,0,0,0,0,0,0a0,0,0,0,0,0,0l0,0v0h0l-4,4a.39.39,0,0,1-.56,0l-5.34-5.31a.4.4,0,0,1,0-.56l1.34-1.35a.39.39,0,0,1,.67.29A.39.39,0,0,1,129,10s-.7.7-1.06,1l4.77,4.75c.28-.25,1.25-1.21,2.1-2.08l-6.37-6.38a.37.37,0,0,1,0-.56l1.33-1.33,2.67-2.67a.37.37,0,0,1,.56,0L134.24,4h2.5a.4.4,0,0,1,.4.4A.39.39,0,0,1,136.74,4.8Zm-1.91.93c-.33-.35-1.74-1.74-2.1-2.1l-2.09,2.1c.09.11.27.27.46.48l1.63,1.62C133.14,7.44,134.45,6.13,134.83,5.73Z"/><path class="cls-1" d="M158.45,2.79a.41.41,0,0,1,0,.55l-2.56,2.57v7.82a.39.39,0,0,1-.4.4h-1.33a.39.39,0,0,1-.4-.4V3.07a.4.4,0,0,1,.4-.4h1.33a.4.4,0,0,1,.4.4v1.7l2-2A.39.39,0,0,1,158.45,2.79Z"/><path class="cls-1" d="M181.86,4.24V3.47h-3.6a.41.41,0,0,1-.4-.4.4.4,0,0,1,.4-.4h5.33a.39.39,0,0,1,.4.4V13.73a.6.6,0,0,1-.06.23h0s0,0,0,0a0,0,0,0,0,0,0l0,0h0l0,0s-.05,0-.06,0,0,0,0,0h-.11l-1.3,0-.08,0h-3.92A.49.49,0,0,1,178,14l-2.67-2.67a.43.43,0,0,1,0-.56Zm-3.44,9.09h3.44v-8l-5.71,5.7Z"/><path class="cls-1" d="M206.75,3.07a.41.41,0,0,1-.4.4h-2.26v9.86H205a.4.4,0,0,1,.4.4.39.39,0,0,1-.4.4h-2.67a.4.4,0,0,1-.41-.4V3.47H201a.4.4,0,0,1-.4-.4.39.39,0,0,1,.4-.4h.92V.4a.4.4,0,0,1,.41-.4h1.34a.41.41,0,0,1,.4.4V2.67h2.26A.4.4,0,0,1,206.75,3.07Z"/><path class="cls-1" d="M223.47,11.33a.33.33,0,0,1-.11-.29V3.09a.39.39,0,0,1,.4-.4.38.38,0,0,1,.4.4v7.79c.19.21,1.84,1.89,2.27,2.33.32-.36,2.29-2.33,3.6-3.64V3.09a.38.38,0,0,1,.4-.4h1.33a.38.38,0,0,1,.4.4V13.73A.34.34,0,0,1,232,14c0,.08-.16.13-.27.13h-1.33a.38.38,0,0,1-.4-.4v-3l-3.31,3.33a.37.37,0,0,1-.29.12.36.36,0,0,1-.27-.12Z"/><path class="cls-1" d="M250.93.4V13.33h.94a.42.42,0,0,1,.41.4.41.41,0,0,1-.41.4H249.2a.39.39,0,0,1-.4-.4V.4a.4.4,0,0,1,.4-.4h1.33A.4.4,0,0,1,250.93.4Z"/><path class="cls-1" d="M275.56,4.24V3.47H272a.4.4,0,0,1-.4-.4.39.39,0,0,1,.4-.4h5.33a.4.4,0,0,1,.4.4V13.73a.48.48,0,0,1-.07.23h0s0,0,0,0l0,0,0,0h-.05v0a.1.1,0,0,1-.07,0,0,0,0,0,0,0,0h-.11l-1.3,0-.08,0H272a.49.49,0,0,1-.29-.11L269,11.35a.4.4,0,0,1,0-.56Zm-3.44,9.09h3.44v-8l-5.71,5.7Z"/><path class="cls-1" d="M300.44,3.07a.4.4,0,0,1-.4.4h-2.25v9.86h.92a.39.39,0,0,1,.4.4.39.39,0,0,1-.4.4H296a.39.39,0,0,1-.4-.4V3.47h-.93a.41.41,0,0,1-.4-.4.4.4,0,0,1,.4-.4h.93V.4A.4.4,0,0,1,296,0h1.35a.41.41,0,0,1,.4.4V2.67H300A.39.39,0,0,1,300.44,3.07Z"/><path class="cls-1" d="M319.2,1.73a.4.4,0,0,1-.4.4h-1.33a.4.4,0,0,1-.4-.4V.4a.4.4,0,0,1,.4-.4h1.33a.4.4,0,0,1,.4.4Zm0,1.34V13.73a.39.39,0,0,1-.4.4h-1.33a.39.39,0,0,1-.4-.4V3.07a.4.4,0,0,1,.4-.4h1.33A.4.4,0,0,1,319.2,3.07Z"/><path class="cls-1" d="M347.29,7.07v.07s0,0,0,0v0s0,0,0,0,0,0,0,0a.11.11,0,0,1,0,.07h0L340.52,14s0,0-.07,0v0h0s0,0,0,0a.57.57,0,0,1-.18,0,.49.49,0,0,1-.29-.11l-1.29-1.33L335.94,10a.39.39,0,0,1-.11-.29.42.42,0,0,1,.11-.29l6.67-6.65a.37.37,0,0,1,.56,0l2.68,2.67,1.32,1.33a.1.1,0,0,1,.05.06l0,0s0,0,0,0,0,0,0,0v.11Zm-8.39,4.76,6.1-6.1c-.87-.85-1.84-1.82-2.1-2.1l-6.11,6.1C337.06,10,338,11,338.9,11.83Z"/><path class="cls-1" d="M364,14a.41.41,0,0,1-.11-.27V3.07a.4.4,0,0,1,.4-.4h1.33a.4.4,0,0,1,.4.4v3l3.31-3.35a.52.52,0,0,1,.29-.11.49.49,0,0,1,.29.11l2.67,2.71a.37.37,0,0,1,.11.27v8a.39.39,0,0,1-.4.4.39.39,0,0,1-.4-.4V5.91c-.19-.2-1.84-1.86-2.27-2.31-.32.34-2.27,2.29-3.6,3.62v6.51a.39.39,0,0,1-.4.4l-1.33,0A.41.41,0,0,1,364,14Z"/><path class="cls-1" d="M399.49,11v0h0v.07a0,0,0,0,0,0,0s0,0,0,0v0l0,0s0,0,0,0a0,0,0,0,1,0,0h0L396.69,14a.49.49,0,0,1-.28.11h-6.67a.39.39,0,0,1-.4-.4.39.39,0,0,1,.4-.4h6.5l.94-.93L390.8,6a.41.41,0,0,1-.13-.29.35.35,0,0,1,.13-.27l1.32-1.35,1.33-1.32a.4.4,0,0,1,.29-.12h2.67a.41.41,0,0,1,.4.4.41.41,0,0,1-.4.4H393.9c-.14.15-.62.61-.93.93l6.4,6.4a.18.18,0,0,1,.05.07h0a.09.09,0,0,1,0,0s0,0,0,0,0,0,0,0Z"/><path class="cls-1" d="M72.65,33.56V30.77a1.2,1.2,0,0,1,2.4,0v12a1.2,1.2,0,0,1-2.4,0V36H67V54.77a1.18,1.18,0,0,1-1.2,1.2h-8a1.2,1.2,0,0,1,0-2.4h6.77V36H55V65.57H69.82a1.19,1.19,0,0,1,1.2,1.2v4a1.19,1.19,0,0,1-1.2,1.2h-20a1.18,1.18,0,0,1-1.2-1.2V36H45.86a1.19,1.19,0,0,1-1.2-1.2,1.22,1.22,0,0,1,1.2-1.2h2.79V30.77a1.18,1.18,0,0,1,1.2-1.2h4a1.19,1.19,0,0,1,1.2,1.2v2.79h9.6V30.77a1.2,1.2,0,0,1,2.4,0v2.79ZM77.83,44a1.19,1.19,0,0,1-1.2-1.2v-12a1.2,1.2,0,0,1,2.4,0v12A1.19,1.19,0,0,1,77.83,44Z"/><path class="cls-1" d="M123.06,57.89a1.22,1.22,0,0,1,0,1.73l-8,8a1.2,1.2,0,0,1-.86.38,1.3,1.3,0,0,1-.87-.38L102.23,56.45l-2.79,2.79V70.76a1.19,1.19,0,0,1-1.2,1.2h-4a1.19,1.19,0,0,1-1.2-1.2v-40a1.19,1.19,0,0,1,1.2-1.2h4a1.19,1.19,0,0,1,1.2,1.2V55.88l2-2a1.16,1.16,0,0,1,1.68,0l11.14,11.14,7.15-7.16A1.25,1.25,0,0,1,123.06,57.89Z"/><path class="cls-1" d="M142.66,72a1.18,1.18,0,0,1-1.2-1.2v-40a1.18,1.18,0,0,1,1.2-1.2h4a1.19,1.19,0,0,1,1.2,1.2v34.8h10.8a1.19,1.19,0,0,1,1.2,1.2v4a1.19,1.19,0,0,1-1.2,1.2Zm16-32a1.22,1.22,0,0,1-1.2-1.2,1.19,1.19,0,0,1,1.2-1.2h8a1.19,1.19,0,0,1,1.2,1.2v16a1.18,1.18,0,0,1-1.2,1.2,1.22,1.22,0,0,1-1.2-1.2V40Z"/><path class="cls-1" d="M219.86,57.89a1.22,1.22,0,0,1,0,1.73l-8,8A1.2,1.2,0,0,1,211,68a1.27,1.27,0,0,1-.86-.38L199,56.45l-2.78,2.79V70.76A1.19,1.19,0,0,1,195,72h-4a1.19,1.19,0,0,1-1.2-1.2v-40a1.19,1.19,0,0,1,1.2-1.2h4a1.19,1.19,0,0,1,1.2,1.2V55.88l2-2a1.16,1.16,0,0,1,1.68,0L211,65.05l7.16-7.16A1.25,1.25,0,0,1,219.86,57.89Z"/><path class="cls-1" d="M267.44,37.59a1.19,1.19,0,0,1,1.2,1.2,1.22,1.22,0,0,1-1.2,1.2h-10.8V70.76a1.2,1.2,0,1,1-2.4,0V40h-1.59V70.76a1.22,1.22,0,0,1-1.2,1.2h-12a1.19,1.19,0,0,1-1.2-1.2v-32a1.19,1.19,0,0,1,1.2-1.2h6.77V32h-6.77a1.2,1.2,0,1,1,0-2.4h12a1.22,1.22,0,0,1,1.2,1.2v6.82h1.59V30.77a1.2,1.2,0,1,1,2.4,0v6.82ZM246.22,40h-5.57V69.56h5.57Z"/><path class="cls-1" d="M302.63,61.54V40.08h-10.8a1.22,1.22,0,0,1-1.2-1.2,1.19,1.19,0,0,1,1.2-1.2h16a1.19,1.19,0,0,1,1.2,1.2V66.77a1.18,1.18,0,0,1-1.2,1.2h-12a1.18,1.18,0,0,1-1.2-1.2v-4a1.22,1.22,0,0,1,1.2-1.2Z"/><path class="cls-1" d="M336.25,72a1.18,1.18,0,0,1-1.2-1.2v-40a1.18,1.18,0,0,1,1.2-1.2,1.22,1.22,0,0,1,1.2,1.2v40A1.22,1.22,0,0,1,336.25,72Zm21.17-38.4h2.78a1.22,1.22,0,0,1,1.2,1.2,1.19,1.19,0,0,1-1.2,1.2h-2.78v34.8a1.19,1.19,0,0,1-1.2,1.2h-8a1.18,1.18,0,0,1-1.2-1.2v-4a1.18,1.18,0,0,1,1.2-1.2H351V36h-6.82a1.19,1.19,0,0,1-1.2-1.2,1.22,1.22,0,0,1,1.2-1.2H351V30.77a1.19,1.19,0,0,1,1.2-1.2h4a1.19,1.19,0,0,1,1.2,1.2Z"/><path class="cls-1" d="M392.12,60a1.19,1.19,0,0,1-1.2-1.2v-28a1.19,1.19,0,0,1,1.2-1.2h4.13a1.22,1.22,0,0,1,1.2,1.2v28a1.1,1.1,0,0,1-.39.81,1.21,1.21,0,0,1-.86.39Zm0,12a1.22,1.22,0,0,1-1.2-1.2v-8a1.22,1.22,0,0,1,1.2-1.2h4.13a1.26,1.26,0,0,1,1.2,1.2v8a1.21,1.21,0,0,1-.39.86,1.4,1.4,0,0,1-.86.34Z"/><path class="cls-2" d="M421.44,88.62a1.49,1.49,0,0,1-1.24-2.33l24.64-36.58a1.5,1.5,0,1,1,2.48,1.68L422.69,88A1.49,1.49,0,0,1,421.44,88.62Z"/><path class="cls-2" d="M25.84,88.32a1.18,1.18,0,0,1-1-.53L.2,51.22a1.2,1.2,0,1,1,2-1.34L26.83,86.45a1.21,1.21,0,0,1-.33,1.67A1.14,1.14,0,0,1,25.84,88.32Z"/></g></g></svg>