<svg xmlns="http://www.w3.org/2000/svg" viewBox="0 0 182.29 31.88"><defs><style>.cls-1{fill:#040000;}</style></defs><title>logo_contents_figure</title><g id="レイヤー_2" data-name="レイヤー 2"><g id="レイヤー_1-2" data-name="レイヤー 1"><path class="cls-1" d="M126.1,5.75a.79.79,0,0,1,.74.51.78.78,0,0,1-.16.87l-24.6,24.5a.77.77,0,0,1-1.13,0l-2.71-2.71a.77.77,0,0,1-.22-.58.72.72,0,0,1,.22-.55l20.5-20.46H107.25a.81.81,0,0,1,0-1.62Z"/><path class="cls-1" d="M125.77,21.47a.7.7,0,0,1-.19-.43.57.57,0,0,1,.17-.46l8-8a.6.6,0,0,1,.86,0l2,2a.58.58,0,0,1,0,.84l-3.77,3.79V29a.61.61,0,0,1-.6.6.59.59,0,0,1-.6-.6V20.44l-3,3a.51.51,0,0,1-.4.17.6.6,0,0,1-.44-.17C127.05,22.72,125.87,21.57,125.77,21.47Z"/><path class="cls-1" d="M146.71,14.69v-.82h-5.4a.59.59,0,0,1-.6-.6.61.61,0,0,1,.6-.6h5.4V11.28a.6.6,0,0,1,.6-.6h2a.61.61,0,0,1,.6.6v1.39h6.8V11.28a.6.6,0,0,1,.6-.6.6.6,0,0,1,.6.6v6a.6.6,0,0,1-.6.6.59.59,0,0,1-.6-.6V15.89h-6.8V31.28a.61.61,0,0,1-.19.43.72.72,0,0,1-.43.17h-2a.61.61,0,0,1-.6-.6V15.89h-5.4a.61.61,0,0,1-.6-.6.59.59,0,0,1,.6-.6Zm3.21-.82v.82h6.8v-.82Zm9.39-3.19a.6.6,0,0,1,.6.6v6a.6.6,0,0,1-1.2,0v-6A.6.6,0,0,1,159.31,10.68Z"/><path class="cls-1" d="M165.15,13.87a.6.6,0,0,1-.62-.6.61.61,0,0,1,.62-.6h16.52a.62.62,0,0,1,.57.39.55.55,0,0,1-.15.65l-6.17,6a.64.64,0,0,1-.89,0,.6.6,0,0,1-.17-.44.51.51,0,0,1,.17-.4s3.69-3.58,5.13-5Zm8.27,2.81a.63.63,0,0,1,.62.6v14a.63.63,0,0,1-.62.6h-6.19a.61.61,0,0,1-.62-.6l-.05-2a.62.62,0,0,1,.2-.43.55.55,0,0,1,.42-.17h3.52V17.28a.61.61,0,0,1,.62-.6Z"/><path class="cls-1" d="M3.9,0a.89.89,0,0,1,.9.9V31a.9.9,0,0,1-.9.91H.9A.9.9,0,0,1,0,31V.91A.89.89,0,0,1,.9,0Z"/><path class="cls-1" d="M34.9.91V31a.92.92,0,0,1-.9.91H31a.94.94,0,0,1-.61-.26.89.89,0,0,1-.29-.65V6.11L16.57,19.6a.94.94,0,0,1-1.27,0,.92.92,0,0,1,0-1.3L17.68,16,10.83,9.1V31A.91.91,0,1,1,9,31V.91A.91.91,0,0,1,9.56.08a.93.93,0,0,1,1,.18l11.37,11.4L30.21,3.4a1.14,1.14,0,0,1,.11-.11l3-3A.88.88,0,0,1,34.07,0a.77.77,0,0,1,.29.07A.91.91,0,0,1,34.9.91Z"/><path class="cls-1" d="M40.78,13.87a.59.59,0,0,1-.6-.6.61.61,0,0,1,.6-.6h1.39V11.28a.6.6,0,1,1,1.2,0v1.39h9.39a.62.62,0,0,1,.6.6.6.6,0,0,1-.6.6H43.37v.82h7.39a.59.59,0,0,1,.6.6v16a.6.6,0,0,1-.6.6h-8a.6.6,0,0,1-.6-.6v-2a.6.6,0,0,1,.6-.6h5.4V15.89h-5.4a.61.61,0,0,1-.6-.6V13.87Z"/><path class="cls-1" d="M62.32,16.68h.82V15.27a.59.59,0,0,1,.6-.6.61.61,0,0,1,.6.6v1.41h3.38a.6.6,0,0,1,.6.6v8a.59.59,0,0,1-.6.6h-4a.59.59,0,0,1-.6-.6.6.6,0,0,1,.6-.6h3.38V17.88H64.34v5.4a.63.63,0,0,1-.6.6.61.61,0,0,1-.6-.6v-5.4h-.82v13.4a.6.6,0,0,1-.6.6h-2a.6.6,0,0,1-.6-.6V17.88H57.74a.61.61,0,0,1-.6-.6.6.6,0,0,1,.6-.6h1.39V15.27a.59.59,0,0,1,.6-.6h2a.59.59,0,0,1,.6.6Z"/><path class="cls-1" d="M89.24,24.84a.62.62,0,0,1,0,.87l-4,4a.59.59,0,0,1-.43.19.65.65,0,0,1-.43-.19l-5.57-5.57-1.39,1.39v5.77a.6.6,0,0,1-.6.6h-2a.6.6,0,0,1-.6-.6v-20a.6.6,0,0,1,.6-.6h2a.6.6,0,0,1,.6.6V23.83l1-1a.58.58,0,0,1,.84,0l5.57,5.57,3.58-3.58A.64.64,0,0,1,89.24,24.84Z"/></g></g></svg>