<svg xmlns="http://www.w3.org/2000/svg" viewBox="0 0 301.92 54.08"><defs><style>.cls-1{fill:#fff;}</style></defs><title>logo_main01_w</title><g id="レイヤー_2" data-name="レイヤー 2"><g id="レイヤー_1-2" data-name="レイヤー 1"><path class="cls-1" d="M5.9,0A1.35,1.35,0,0,1,7.26,1.38V46.86A1.35,1.35,0,0,1,5.9,48.22H1.36A1.35,1.35,0,0,1,0,46.86V1.38A1.35,1.35,0,0,1,1.36,0Z"/><path class="cls-1" d="M52.8,1.38V46.86a1.38,1.38,0,0,1-1.37,1.36H46.85a1.42,1.42,0,0,1-.93-.38,1.37,1.37,0,0,1-.44-1V9.24L25.06,29.66a1.42,1.42,0,0,1-1.91,0,1.38,1.38,0,0,1,0-2l3.6-3.55L16.38,13.77V46.86a1.37,1.37,0,0,1-2.73,0V1.38A1.39,1.39,0,0,1,14.47.12,1.42,1.42,0,0,1,16,.39L33.2,17.65,45.7,5.14,45.86,5,50.45.39A1.38,1.38,0,0,1,51.54,0,1.14,1.14,0,0,1,52,.12,1.39,1.39,0,0,1,52.8,1.38Z"/><path class="cls-1" d="M61.69,21a.89.89,0,0,1-.9-.91.92.92,0,0,1,.9-.91H63.8v-2.1a.91.91,0,1,1,1.81,0v2.1h14.2a.93.93,0,0,1,.91.91.9.9,0,0,1-.91.91H65.61v1.23H76.8a.9.9,0,0,1,.91.91V47.32a.9.9,0,0,1-.91.9H64.71a.9.9,0,0,1-.91-.9v-3a.9.9,0,0,1,.91-.91h8.17V24H64.71a.93.93,0,0,1-.91-.91V21Z"/><path class="cls-1" d="M94.29,25.24h1.23V23.1a.9.9,0,0,1,.91-.91.93.93,0,0,1,.91.91v2.14h5.12a.9.9,0,0,1,.9.91V38.24a.9.9,0,0,1-.9.91h-6a.91.91,0,1,1,0-1.82h5.12V27.05H97.34v8.17a1,1,0,0,1-.91.91.92.92,0,0,1-.91-.91V27.05H94.29V47.32a.9.9,0,0,1-.91.9h-3a.9.9,0,0,1-.9-.9V27.05H87.35a.92.92,0,0,1-.91-.9.9.9,0,0,1,.91-.91h2.11V23.1a.9.9,0,0,1,.9-.91h3a.9.9,0,0,1,.91.91Z"/><path class="cls-1" d="M135,37.58a.93.93,0,0,1,0,1.31l-6,6a.92.92,0,0,1-.66.29,1,1,0,0,1-.65-.29l-8.42-8.43-2.11,2.11v8.72a.9.9,0,0,1-.91.9h-3a.9.9,0,0,1-.91-.9V17.07a.9.9,0,0,1,.91-.91h3a.9.9,0,0,1,.91.91v19l1.49-1.49a.88.88,0,0,1,1.27,0L128.32,43l5.41-5.41A1,1,0,0,1,135,37.58Z"/><path class="cls-1" d="M145.23,8.84a1.14,1.14,0,0,1,1.15-1.14h11.49a1.09,1.09,0,0,1,.82.32L170.18,19.5a1.3,1.3,0,0,1,.32.83,1.25,1.25,0,0,1-.32.78l-18.84,18.8v7.16a1.16,1.16,0,0,1-1.15,1.15h-3.81a1.17,1.17,0,0,1-1.15-1.15ZM157.41,10h-6.07v26.7L167.7,20.33C166.37,19,158,10.54,157.41,10Z"/><path class="cls-1" d="M185.17,22.48a1,1,0,0,1,0,1.27l-5.82,5.81V47.32a.89.89,0,0,1-.9.9h-3a.9.9,0,0,1-.91-.9V23.13a.91.91,0,0,1,.91-.91h3a.89.89,0,0,1,.9.91V27l4.51-4.5A.93.93,0,0,1,185.17,22.48Z"/><path class="cls-1" d="M214.16,32.21v.15s0,.07,0,.07v.11s0,0,0,.07,0,.07-.08.07a.26.26,0,0,1-.07.15h0L198.8,48s-.11,0-.15.07l0,0h0s-.07,0-.07.07a1.46,1.46,0,0,1-.4.07,1.12,1.12,0,0,1-.66-.25l-2.94-3-6.1-6.07a.87.87,0,0,1-.25-.65,1,1,0,0,1,.25-.66l15.15-15.1a.88.88,0,0,1,1.27,0l6.06,6.06,3,3a.33.33,0,0,1,.11.14l.08.07s0,0,0,.08a.14.14,0,0,0,0,.11v.25ZM195.13,43,209,29.16c-2-1.92-4.18-4.14-4.76-4.76-1.13,1.13-12.75,12.71-13.87,13.84C191,38.86,193.17,41.07,195.13,43Z"/><path class="cls-1" d="M219.51,53.82l-3-3.08a1,1,0,0,1-.25-.62.9.9,0,0,1,.28-.65s5.49-5.23,6-5.7V23a.9.9,0,0,1,.9-.91h3.05a.92.92,0,0,1,.91.91V47.18a.91.91,0,0,1-.29.65l-6.28,6A.9.9,0,0,1,219.51,53.82Zm7.59-40.51a1.32,1.32,0,0,1,1.3,1.3v4.31a1.32,1.32,0,0,1-1.3,1.3h-4.36a1.28,1.28,0,0,1-1.3-1.3V14.61a1.28,1.28,0,0,1,1.3-1.3Z"/><path class="cls-1" d="M256.28,28.54a.82.82,0,0,1,.26.62v6.06a.9.9,0,0,1-.91.91h-6a.91.91,0,1,1,0-1.81h5.12V29.56c-.18-.22-1.09-1.09-2.07-2.11L238.78,41.29l5.12,5.12h8.71a.91.91,0,1,1,0,1.81h-9.07a1.07,1.07,0,0,1-.66-.25l-6-6.06-1.53-1.53-1.53-1.49a1,1,0,0,1,0-1.31L249,22.48l0,0a.9.9,0,0,1,.66-.25.77.77,0,0,1,.61.25l3.05,3.09Z"/><path class="cls-1" d="M260.78,38.2a.88.88,0,0,1,.15-.5,1.18,1.18,0,0,0,.11-.15l15.11-15.07,0,0a.88.88,0,0,1,.66-.25.79.79,0,0,1,.61.25l3,3.08,3,3a.88.88,0,0,1,0,1.27.93.93,0,0,1-1.31,0s-1.08-1.13-2.32-2.36L266,41.25l5.11,5.11h8.7a.91.91,0,0,1,0,1.81h-9.06a1,1,0,0,1-.65-.25l-6-6.06-3-3A.89.89,0,0,1,260.78,38.2Z"/><path class="cls-1" d="M301.92,23.13A.93.93,0,0,1,301,24h-5.12V46.41H298a.91.91,0,1,1,0,1.81h-6.06a.9.9,0,0,1-.91-.9V24h-2.11a.93.93,0,0,1-.91-.91.9.9,0,0,1,.91-.91H291V17.07a.9.9,0,0,1,.91-.91H295a.92.92,0,0,1,.9.91v5.15H301A.9.9,0,0,1,301.92,23.13Z"/></g></g></svg>